<svg xmlns="http://www.w3.org/2000/svg" version="1.1" xmlns:xlink="http://www.w3.org/1999/xlink" width="1500" height="571" viewBox="0 0 1500 571"><svg xml:space="preserve" width="1500" height="571" data-version="2" data-id="lg_ojXQeYUAAmPLgLKJ72" viewBox="0 0 571 571" x="0" y="0"><rect width="100%" height="100%" fill="transparent"></rect><rect width="619.702" height="619.702" x="-309.851" y="-309.851" fill="#d4b7ee" stroke="#000" stroke-width="7" rx="0" ry="0" transform="translate(285.5 285.5)scale(.8936)"></rect><rect width="553.332" height="553.332" x="-276.666" y="-276.666" fill="#d4b7ee" stroke="#000" stroke-width="31" rx="0" ry="0" transform="translate(285.049 285.049)scale(.8936)"></rect><rect width="64.924" height="160.611" x="-32.462" y="-80.305" rx="0" ry="0" transform="translate(80.48 122.267)scale(.8936)"></rect><path d="M254.61 114.9h-14.8V65.91h5.76v44.23h9.04zm10.3 0h-5.76V65.91h5.76zm17.59 0h-9.57V65.91h8.85q3.75 0 5.81 1.12 2.06 1.11 2.9 3.53.83 2.42.86 6.38v1.05q0 4.09-.76 6.67-.77 2.57-2.94 3.71 1.75.7 2.73 2.43.97 1.72 1.37 4.14.41 2.42.41 5.21v1.03q-.06 4.78-.96 7.82-.91 3.03-2.99 4.47-2.09 1.43-5.71 1.43m-3.81-24.1v19.45h3.53q1.64 0 2.53-.81.9-.8 1.26-2.82.36-2.02.36-5.61v-1.7q0-4.53-.72-6.52-.73-1.99-3.12-1.99zm0-20.18v15.75h3.25q1.17 0 1.9-.26.72-.27 1.12-1.07.41-.81.55-2.4.14-1.58.14-4.26v-1.36q0-2.78-.42-4.15-.42-1.36-1.32-1.81-.91-.44-2.38-.44zm25.52 44.28h-5.76V65.91h10.27q3.89 0 5.76 1.38 1.86 1.38 2.43 4.15.58 2.77.58 6.97 0 4.54-.92 7.21T313 89.07q1.34.22 2.22 1.14.87.92 1.37 2.87.51 1.95.71 5.22.21 3.27.21 8.22v1.37q0 .89.03 1.94.03 1.06.07 2.09.04 1.03.13 1.82.08.8.22 1.16h-5.73q-.12-.25-.2-1.11-.08-.87-.14-2.29-.05-1.42-.08-3.38t-.03-4.4v-5.33q0-2.78-.24-4.24-.23-1.46-1.11-2.03-.88-.57-2.8-.68l-3.42-.2zm0-44.42v16.53h3.67q1.59 0 2.44-.63.85-.62 1.15-2.5.31-1.88.31-5.64v-.33q0-3.12-.29-4.72-.29-1.6-1.13-2.15-.83-.56-2.53-.56zm26.13 44.42h-5.76V65.91h5.76zm-96.03 62.48H219.5v-48.99h5.76v44.23h9.05zm13.86.58q-3.62 0-5.75-1.43-2.13-1.44-3.05-4.36-.92-2.92-.92-7.37v-36.41h5.76v36.27q0 2.64.2 4.53.19 1.9 1.03 2.9.83 1 2.73 1 1.92 0 2.72-1 .81-1 .99-2.88.18-1.88.18-4.52v-36.3h5.74v36.41q0 4.45-.89 7.37t-3 4.36q-2.1 1.43-5.74 1.43m22.54-.58h-5.31v-48.99h4.34l11.35 33.34-.58-14.16v-19.18h5.09v48.99h-4.23l-10.99-33.62.33 12.35zm25.77 0H291l7.43-48.99h6.93l8.1 48.99h-5.43l-1.39-9.36h-8.88zm5.49-39.91-3.57 25.88h7.52l-3.87-25.88zm22.65 39.91h-5.76v-48.99h10.27q3.9 0 5.76 1.38 1.87 1.38 2.44 4.15.57 2.77.57 6.97 0 4.54-.92 7.21t-3.56 3.45q1.33.22 2.21 1.14.88.92 1.38 2.87.5 1.94.71 5.21.21 3.27.21 8.23v1.36q0 .89.02 1.95.03 1.06.07 2.09.04 1.03.13 1.82.08.79.22 1.16h-5.73q-.11-.25-.2-1.12-.08-.86-.14-2.28-.05-1.42-.08-3.38t-.03-4.4v-5.33q0-2.78-.23-4.24-.24-1.46-1.12-2.03-.87-.57-2.8-.69l-3.42-.19zm0-44.42v16.53h3.68q1.58 0 2.43-.63.85-.62 1.16-2.5.3-1.88.3-5.64v-.33q0-3.12-.29-4.72-.29-1.6-1.13-2.16-.83-.55-2.53-.55zm26.14 44.42h-5.77v-48.99h5.77z"></path><rect width="64.924" height="163.989" x="-32.462" y="-81.995" rx="0" ry="0" transform="translate(489.805 124.098)scale(.8936)"></rect><path d="M169.32 491.49h-16.1v-53.28h6.26v48.11h9.84zm14.93.61q-4 0-6.32-1.76-2.31-1.75-3.3-5.29-.98-3.55-.98-8.87v-23.5q0-4.6.91-7.99.91-3.39 3.24-5.27 2.33-1.87 6.6-1.87 3.21 0 5.23 1.07 2.03 1.08 3.14 3.06 1.1 1.98 1.53 4.77.42 2.78.42 6.23v23.5q0 5.32-.95 8.87-.96 3.54-3.24 5.29-2.29 1.76-6.28 1.76m0-5.39q1.72 0 2.63-.98.91-.99 1.24-3.29.33-2.3.33-6.2v-23.92q0-4.78-.75-7.08-.76-2.3-3.3-2.3-2.64 0-3.56 2.28-.92 2.29-.92 7.07v23.95q0 3.93.33 6.22.33 2.28 1.27 3.27.94.98 2.73.98m27.18 5.39q-3.24 0-5.27-1.17-2.02-1.16-3.11-3.31-1.09-2.15-1.5-5.07-.41-2.92-.41-6.46v-5.18h6.08v5.42q0 5.6.81 8 .8 2.41 3.46 2.41 1.85 0 2.71-.86.86-.86 1.11-2.77.24-1.91.24-5.03 0-3.57-1.26-6.14-1.25-2.58-3.62-4.94l-3.48-3.48q-1.51-1.54-2.96-3.37-1.46-1.84-2.41-4.17-.95-2.33-.95-5.32 0-4.03.84-6.97.85-2.93 3.09-4.54 2.24-1.6 6.36-1.6 3.24 0 5.19 1.12 1.95 1.12 2.94 3.19.98 2.07 1.3 4.92.32 2.85.32 6.3v3.15h-6v-3.58q0-3.24-.25-5.4-.26-2.16-1.05-3.25-.79-1.09-2.45-1.09-1.51 0-2.47.74-.95.74-1.38 2.28-.42 1.55-.42 3.97 0 2.12.52 3.5.51 1.37 1.55 2.55 1.05 1.18 2.56 2.79l3.64 3.84q2.87 3 4.7 6.71t1.83 8.61q0 4.42-.86 7.6-.86 3.18-3.07 4.89-2.21 1.71-6.33 1.71m24.95-.61h-6.24v-48.07h-5.87v-5.21h17.59v5.21h-5.48zm31.78 0h-6.26v-53.28h6.26zm14.51 0h-5.79v-53.28h4.73l12.35 36.27-.64-15.41v-20.86h5.54v53.28h-4.6l-11.96-36.57.37 13.45zm46.13 0h-6.26v-53.28h10.71q3.18 0 5.16 1.06 1.99 1.06 3.05 3.06 1.06 2 1.43 4.81.38 2.82.38 6.33v.82q0 5.36-.83 8.99t-3 5.46q-2.16 1.84-6.19 1.84h-4.45zm0-48.31v22.19h3.82q1.84 0 2.78-1.05.94-1.04 1.29-3.46.35-2.42.35-6.57v-1.03q0-5.15-.79-7.61-.79-2.47-3.48-2.47zm23.92 48.31h-5.97l8.09-53.28h7.54l8.8 53.28h-5.9l-1.51-10.17h-9.66zm5.96-43.41-3.87 28.16h8.17l-4.21-28.16zm27.37 43.93q-4.63 0-7.12-3.82-2.48-3.81-2.48-12.56v-22.34q0-3.51.5-6.37.5-2.86 1.71-4.95 1.21-2.09 3.32-3.21 2.1-1.12 5.31-1.12 3.33 0 5.31 1.13 1.99 1.14 3.02 3.23 1.02 2.09 1.36 4.99.33 2.91.33 6.42v4.12h-6.05v-6.93q0-3.88-.78-5.74-.77-1.86-3.19-1.86-2.57 0-3.57 2.21t-1 7.81v22.4q0 6.11.83 8.75.83 2.63 3.56 2.63 2.6 0 3.53-2.65.92-2.65.92-8.85v-6.93h-4.33v-4.85h10.08v27.97h-3.3l-.85-4.11q-.84 2.24-2.68 3.43-1.83 1.2-4.43 1.2m35.48-.52h-16.05v-53.28h15.93v5.21h-9.66v18.22h9.14v5.21h-9.14v19.44h9.78z"></path><rect width="64.924" height="97.176" x="-32.462" y="-48.588" rx="0" ry="0" transform="translate(80.39 476.452)scale(.8936)"></rect><rect width="64.924" height="97.176" x="-32.462" y="-48.588" rx="0" ry="0" transform="translate(489.716 476.774)scale(.8936)"></rect><path d="M265.425 317.76c-22.02-36.09-18.422-82.235 8.926-114.48-41.61 9.563-72.262 44.934-75.81 87.483-3.546 42.546 20.827 82.505 60.28 98.825 39.454 16.32 84.933 5.253 112.478-27.368-41.192 9.556-83.869-8.374-105.874-44.481"></path></svg></svg>