<svg xmlns="http://www.w3.org/2000/svg" version="1.1" xmlns:xlink="http://www.w3.org/1999/xlink" width="1500" height="1500" viewBox="0 0 1500 1500"><rect width="1500" height="1500" x="0" y="0" id="background" stroke="transparent" fill="#ffffff"></rect><svg xml:space="preserve" width="1000" height="1000" data-version="2" data-id="lg_mCufdSHAND6IjKWkF2" viewBox="0 0 570 173" x="250" y="250"><rect width="100%" height="100%" fill="transparent"></rect><path fill="#535353" d="M151.289 171.732H5.501V65.192c0-35.305 32.635-63.924 72.894-63.924 40.26 0 72.894 28.619 72.894 63.924z"></path><path fill="#252525" d="m204.22 66.277 16.72 25.46h-3.78l-16.3-24.95q-3.11.42-6.89.59v24.36h-3.11v-58.89q28.14.09 28.14 16.89 0 13.52-14.78 16.54m-10.25-30.24v27.98l.84.08q21.09-.34 21.09-14.11 0-3.87-1.81-6.43-1.81-2.56-4.07-3.99-5.38-3.36-16.05-3.53m70.14 26.8q0 13.86-4.7 21.38-4.71 7.52-13.61 7.52-8.9 0-14.11-7.61-5.21-7.6-5.21-21.58 0-13.99 5.12-22.01 5.13-8.02 14.28-8.02 5.46 0 9.29 2.81 3.82 2.81 5.67 7.6 3.27 8.82 3.27 19.91m-3.11-1.43q0-11.67-3.94-18.65-3.95-6.97-11.34-6.97-7.4 0-11.76 6.93-4.37 6.93-4.37 19.87 0 15.03 6.8 22.09 3.78 3.86 8.65 3.86 4.88 0 7.98-2.18 3.11-2.18 4.79-6.05 3.19-7.22 3.19-18.9m41.5-15.45-3.11-.09q-.75-4.53-3.74-7.18-2.98-2.65-6.67-2.65-6.22 0-9.83 6.35-3.61 6.34-3.61 14.57 0 23.1 11.92 28.9 5.72 2.85 15.04 2.85v3.11q-12.18 0-18.14-3.61-2.36-1.43-4.75-4.03-2.39-2.61-3.91-6.22-3.27-8.15-3.27-21.08 0-6.14 1.68-11.01t4.2-7.56q5.12-5.37 10.33-5.37t9.53 4.2q4.33 4.2 4.33 8.82m38.39 39.06v6.72h-3.11v-5.72q0-26.04-12.77-26.04-2.69 0-5.12 1.39-2.44 1.39-3.4 2.44-.97 1.05-2.48 3.06v24.87h-3.11v-58.8h3.11v28.98l22.68-29.07h4.28l-19.49 24.53q2.02-.5 3.95-.5 7.14 0 11.3 6.88 4.16 6.89 4.16 21.26m9.41-40.66h-2.27l-.42-11.42h3.19zm37.71 47.38-23.85-53.51v53.51h-3.11v-58.89h4.45l22.51 51.75v-51.66h3.11v58.8zm16.05-47.38h-2.27l-.42-11.42h3.19zm24.1 21.92 16.72 25.46h-3.78l-16.3-24.95q-3.1.42-6.88.59v24.36h-3.11v-58.89q28.14.09 28.14 16.89 0 13.52-14.79 16.54m-10.24-30.24v27.98l.84.08q21.08-.34 21.08-14.11 0-3.87-1.81-6.43-1.8-2.56-4.07-3.99-5.38-3.36-16.04-3.53m70.14 26.8q0 13.86-4.71 21.38-4.7 7.52-13.61 7.52-8.9 0-14.11-7.61-5.21-7.6-5.21-21.58 0-13.99 5.13-22.01 5.12-8.02 14.28-8.02 5.46 0 9.28 2.81 3.82 2.81 5.67 7.6 3.28 8.82 3.28 19.91m-3.11-1.43q0-11.67-3.95-18.65-3.95-6.97-11.34-6.97t-11.76 6.93q-4.37 6.93-4.37 19.87 0 15.03 6.81 22.09 3.78 3.86 8.65 3.86 4.87 0 7.98-2.18 3.11-2.18 4.79-6.05 3.19-7.22 3.19-18.9m42.92 27.22v3.11h-29.23v-58.8h3.11v55.69zm36.63 0v3.11h-29.24v-58.8h3.11v55.69zm-345.83 35.16-3.11-.08q-.76-4.54-3.74-7.18-2.98-2.65-6.68-2.65-6.21 0-9.82 6.34-3.62 6.34-3.62 14.58 0 16.71 5.76 23.85 5.75 7.14 18.1 7.81v-23.1h-8.23v-3.1h11.34v29.4q-12.18 0-18.15-3.62-2.35-1.42-4.74-4.03-2.4-2.6-3.91-6.21-3.27-8.15-3.27-21.09 0-6.13 1.68-11t4.2-7.56q5.12-5.38 10.33-5.38t9.53 4.2q4.33 4.2 4.33 8.82m24.61 20.33 16.72 25.45h-3.78l-16.3-24.95q-3.11.42-6.89.59v24.36h-3.11v-58.88q28.14.08 28.14 16.88 0 13.53-14.78 16.55m-10.25-30.24v27.97l.84.09q21.09-.34 21.09-14.12 0-3.86-1.81-6.42t-4.07-3.99q-5.38-3.36-16.05-3.53m64.35 1.26v54.43h-3.11v-27.72h-23.86v27.72h-3.11v-38.47q0-9.07 5.8-14.87 5.8-5.79 14.53-5.79 6.39 0 9.75 4.7m-26.97 23.6h23.86v-22.42q-2.69-2.78-6.81-2.78-7.39 0-12.22 5.38-4.83 5.38-4.83 12.26zm66.53 30.83-23.86-53.51v53.51h-3.1v-58.88h4.45l22.51 51.74v-51.66h3.11v58.8zm42.84 0-23.86-53.51v53.51h-3.1v-58.88h4.45l22.51 51.74v-51.66h3.11v58.8zm16.04-8.4 3.36.09q2.94 5.37 8.45 5.37 5.5 0 9.03-4.41 3.52-4.41 3.52-13.06v-7.22q-4.03 6.21-11.8 6.21-7.77 0-11.46-5.96-3.7-5.97-3.7-14.53v-16.89h3.11v16.8q0 8.65 3.36 13.06t8.02 4.41q4.66 0 7.98-2.77 3.32-2.77 4.49-8.23v-23.27h3.11v38.47q0 9.58-3.95 15.04-3.94 5.46-11.84 5.46t-11.68-8.57"></path><path fill="#ffffff" d="M56.47 62.187H36.09v63.7h8.46v-19.29h11.92q.64 0 1.32-.05.68-.04 1.32-.04t1.18-.18l7.01 19.56h8.83l-8.1-22.2q2.36-1.46 4.14-4.05 1.77-2.6 2.68-6.46.91-3.87.91-9.15 0-6.46-1.54-10.69-1.55-4.23-4.23-6.69-2.69-2.46-6.19-3.46-3.51-1-7.33-1m-2.36 36.31h-9.56v-28.03h9.56q3.27 0 5.73.46 2.46.45 4.09 1.86 1.64 1.41 2.51 4.1.86 2.68.86 7.14 0 4.82-.86 7.69-.87 2.87-2.51 4.37-1.63 1.5-4.09 1.96-2.46.45-5.73.45m56.87-27.3 2.55-6.92q-1.82-.91-3.87-1.59t-4.23-1.04q-2.18-.37-4.46-.37-5.91 0-10.15 2.14-4.23 2.14-6.46 6.28-2.23 4.14-2.23 10.33v29.21q0 6.1 2.51 10.01 2.5 3.91 6.68 5.73 4.19 1.82 9.38 1.82 1.82 0 4.09-.45 2.28-.46 4.51-1.37 2.23-.91 3.77-2.36l.46 3.27h6.19v-27.39h-18.48l2.73 8.1h7.37v2.27q0 2.19-.77 3.96-.77 1.78-2.18 3.05-1.41 1.28-3.42 1.96-2 .68-4.27.68-3.28 0-5.51-1.09t-3.41-3.23q-1.18-2.14-1.18-5.42v-29.48q0-3.73 1.41-5.87t4-3.05q2.59-.91 5.96-.91 1.37 0 2.87.18 1.5.19 3.05.55 1.54.36 3.09 1" paint-order="stroke"></path></svg></svg>