<svg xmlns="http://www.w3.org/2000/svg" version="1.1" xmlns:xlink="http://www.w3.org/1999/xlink" width="1500" height="164" viewBox="0 0 1500 164"><svg xml:space="preserve" width="1500" height="164" data-version="2" data-id="lg_dZsGvN0DsGEsPG1Eeg" viewBox="0 0 571 164" x="0" y="0"><rect width="100%" height="100%" fill="transparent"></rect><path fill="#8b3c7f" d="M230.495 7.386q9.68 0 14.94 5 5.25 5 5.25 14.37 0 11.02-6.54 17.3-6.54 6.29-18.08 6.29h-7.83v2.57l.42 20.6h-8.35l.52-19.88-.52-46.14zm-1.34 36.26q6.39-1.03 9.74-5.15 3.34-4.12 3.34-11.02 0-12.77-13.59-13.29l-9.99.31-.31 28.94zm43.16-36.15-.52 45.42.42 20.6h-8.35l.52-19.88-.52-46.14zm66.23 0-20.91 31.62 22.56 34.4h-9.99l-2.79-5.36-15.34-22.55-15.76 23.07-2.58 4.84h-8.85l22.45-33.37-21.63-32.65h9.99l2.78 5.25 14.22 21.12 14.21-21.22 2.68-5.15zm51.29 58.81.52.82-.62 6.39h-37.08l.51-19.88-.51-46.14h37.18l.41.82-.61 6.39-15.56-.31-13.08.2-.2 21.63 12.36.21 10.91-.31.62.72-.72 6.39-11.53-.21-11.75.11-.1 9.78.31 13.7 13.08.1zm44.81.31.62.72-.73 6.18h-32.54l.51-19.88-.51-46.14h8.44l-.51 45.42.31 13.7zm-204.15 26.9q9.68 0 14.94 5 5.25 4.99 5.25 14.37 0 11.02-6.54 17.3-6.54 6.28-18.08 6.28h-7.83v2.58l.42 20.6h-8.35l.52-19.88-.52-46.14zm-1.34 36.26q6.39-1.03 9.74-5.15 3.34-4.12 3.34-11.02 0-12.77-13.59-13.29l-9.99.31-.31 28.94zm60.36-36.15 22.04 66.02h-8.44l-1.55-6.59-3.71-11.33-14.83-.31-13.39.31-4.02 10.91-1.64 7.01h-8.24l24.2-66.02zm-5.77 41.3 11.85-.21-10.71-32.55h-.73l-11.94 32.55zm48.1-41.3-.51 45.42.41 20.6h-8.34l.51-19.88-.51-46.14zm70.35-.21-.51 46.86.2 19.37h-8.65l-34.19-52.84h-.52l-.1 31.11.1 21.73h-7.42l.31-19.57-.2-46.45h8.55l34.09 52.83h.72l-.1-52.42zm57.27.21.62.82-.62 6.39-11.54-.62h-6.69l-.31 38.83.31 20.6h-8.34l.61-19.88-.51-39.55h-6.7l-11.74.62-.51-.83.62-6.38zm49.54 58.81.52.82-.62 6.39h-37.08l.52-19.88-.52-46.14h37.18l.42.82-.62 6.39-15.56-.31-13.08.2-.2 21.63 12.36.21 10.92-.31.61.72-.72 6.39-11.53-.21-11.75.1-.1 9.79.31 13.7 13.08.1zm39.35-19.47q6.8 11.23 17.1 24.72l-.11 1.03q-3.7 1.44-7.62 1.86l-1.13-.73q-8.45-12.66-15.14-24.72h-12.05v3.92l.41 20.6h-8.34l.51-19.88-.51-46.14 20.18-.11q9.69 0 14.99 4.9 5.31 4.89 5.31 13.95 0 6.8-3.56 12.21-3.55 5.4-10.04 8.39m-18.54-32.34-.31 27.5 12.36.31q11.54-3.3 11.54-15.35 0-6.28-3.4-9.42-3.4-3.14-10.2-3.35zM85.125 1.565c-44.064 0-79.58 35.517-79.58 79.58s35.516 79.391 79.58 79.391 79.58-35.517 79.58-79.58S128.81 1.565 85.126 1.565m0 145.106c-36.277 0-65.906-29.629-65.906-65.905S48.85 14.86 85.125 14.86s65.906 29.629 65.906 65.906c-.38 36.466-29.82 65.905-65.906 65.905"></path><path fill="#8b3c7f" d="M45.43 41.26v11.396L56.634 41.26zm69.704 52.99L68.03 46.959h-5.698v2.849l49.382 49.382c1.52-1.9 2.66-3.799 3.419-4.938m3.798 3.608-1.899-1.899c-1.71 2.849-4.558 6.838-7.407 9.686-2.85 2.85-6.838 5.698-9.687 7.408l1.9 1.899c2.279-1.33 6.267-3.988 9.686-7.407 3.419-3.419 5.888-7.408 7.407-9.687m-5.698 11.396c-2.848 2.85-6.837 5.698-9.686 7.407l6.838 6.838s5.697 0 11.395-5.698 5.698-11.396 5.698-11.396l-6.837-6.837c-1.71 2.849-4.559 6.837-7.407 9.686M53.596 58.164h-2.848v5.698l47.102 47.103a17.094 17.094 0 0 0 5.128-3.42zm54.32 45.583c.76-.76 1.9-1.9 2.47-3.039L62.713 53.036l-4.178 1.33-1.33 4.178 47.673 47.672zm-2.848-33.997-8.547-8.547-5.698 2.849 11.396 11.396zm-59.639 51.09 2.85 2.85 28.299-28.3-5.698-5.698zm59.639-59.637c8.546 8.547 17.093 0 17.093-5.698s8.547-11.396 8.547-11.396-5.698-2.849-14.245-2.849-22.791 8.547-11.395 19.943m14.624-17.094s-8.547 3.609-11.965 7.597c-1.71 1.71-2.47 4.559-2.47 4.559s-2.469-3.42 0-6.838c4.369-5.888 14.435-5.318 14.435-5.318"></path></svg></svg>