<svg xmlns="http://www.w3.org/2000/svg" version="1.1" xmlns:xlink="http://www.w3.org/1999/xlink" width="1500" height="1500" viewBox="0 0 1500 1500"><rect width="1500" height="1500" x="0" y="0" id="background" stroke="transparent" fill="#000000"></rect><svg xml:space="preserve" width="1000" height="1000" data-version="2" data-id="lg_HG2Oc8TA17829W7AgB" viewBox="0 0 554 367" x="250" y="250"><rect width="100%" height="100%" fill="transparent"></rect><path d="M5.56 251.44h16.59q7.56 0 12.49 1.87 4.93 1.87 7.37 5.69 2.44 3.82 2.44 9.74 0 4.87-1.77 8.13-1.76 3.25-4.62 5.27-2.85 2.01-6.09 3.1l16.84 27.59H40.5l-15.03-25.61H12.7v25.61H5.56zm16.17 6.17H12.7v23.56h9.74q7.52 0 11.07-3.07 3.55-3.06 3.55-9.02 0-6.26-3.76-8.86-3.76-2.61-11.57-2.61m90.16 24.44q0 7.1-1.81 12.91-1.81 5.82-5.35 10-3.55 4.18-8.8 6.44-5.25 2.27-12.18 2.27-7.14 0-12.45-2.27-5.31-2.26-8.82-6.46-3.5-4.2-5.25-10.04-1.74-5.84-1.74-12.93 0-9.41 3.11-16.5 3.1-7.1 9.42-11.05 6.32-3.95 15.86-3.95 9.11 0 15.34 3.91 6.24 3.9 9.45 10.98 3.22 7.08 3.22 16.69m-48.88 0q0 7.81 2.22 13.52 2.23 5.71 6.83 8.82 4.59 3.11 11.69 3.11 7.14 0 11.7-3.11 4.55-3.11 6.73-8.82 2.19-5.71 2.19-13.52 0-11.88-4.98-18.58-4.97-6.7-15.51-6.7-7.14 0-11.76 3.07-4.62 3.06-6.87 8.71-2.24 5.65-2.24 13.5m88.77-25.19q-5.08 0-9.14 1.74-4.05 1.74-6.88 5.04-2.84 3.29-4.35 7.96-1.51 4.66-1.51 10.49 0 7.73 2.41 13.42 2.42 5.69 7.23 8.8 4.81 3.11 12.03 3.11 4.11 0 7.75-.7 3.63-.69 7.07-1.74v6.21q-3.36 1.26-7.05 1.87-3.7.61-8.78.61-9.36 0-15.64-3.88-6.28-3.89-9.41-10.98-3.13-7.1-3.13-16.76 0-6.97 1.96-12.74 1.95-5.78 5.71-9.98t9.24-6.48q5.48-2.29 12.57-2.29 4.66 0 8.99.92 4.32.93 7.81 2.65l-2.86 6.04q-2.94-1.34-6.44-2.33-3.51-.98-7.58-.98m46.82 21.2 25.36 34.77h-8.44l-22.13-29.85-6.55 5.87v23.98h-7.14v-61.39h7.14v30.61q2.39-2.73 4.91-5.44 2.52-2.7 5-5.48l17.93-19.69h8.36zm31.03-26.62h7.56l-1.6 22.17h-4.41zm69.58 0v61.39h-8.23l-33.47-51.56h-.33q.12 2.05.29 4.68.17 2.62.28 5.58.1 2.96.1 6.03v35.27h-6.63v-61.39h8.18l33.35 51.4h.29q-.08-1.47-.21-4.18t-.23-5.84q-.11-3.13-.11-5.81v-35.57zm14.03 0h7.56l-1.6 22.17h-4.41zm21.58 0h16.59q7.56 0 12.49 1.87 4.94 1.87 7.37 5.69 2.44 3.82 2.44 9.74 0 4.87-1.77 8.13-1.76 3.25-4.62 5.27-2.85 2.01-6.09 3.1l16.84 27.59h-8.31l-15.03-25.61h-12.77v25.61h-7.14zm16.17 6.17h-9.03v23.56h9.74q7.52 0 11.07-3.07 3.55-3.06 3.55-9.02 0-6.26-3.76-8.86-3.76-2.61-11.57-2.61m90.16 24.44q0 7.1-1.81 12.91-1.81 5.82-5.35 10-3.55 4.18-8.8 6.44-5.25 2.27-12.18 2.27-7.14 0-12.45-2.27-5.31-2.26-8.82-6.46-3.5-4.2-5.25-10.04-1.74-5.84-1.74-12.93 0-9.41 3.11-16.5 3.11-7.1 9.43-11.05 6.31-3.95 15.85-3.95 9.11 0 15.35 3.91 6.23 3.9 9.44 10.98 3.22 7.08 3.22 16.69m-48.88 0q0 7.81 2.22 13.52 2.23 5.71 6.83 8.82 4.59 3.11 11.69 3.11 7.14 0 11.7-3.11 4.55-3.11 6.74-8.82 2.18-5.71 2.18-13.52 0-11.88-4.98-18.58-4.97-6.7-15.51-6.7-7.14 0-11.76 3.07-4.62 3.06-6.87 8.71-2.24 5.65-2.24 13.5m96.91 30.78h-34.39v-61.39h7.14v55.01h27.25zm59.26-31.28q0 10.37-3.78 17.32-3.78 6.95-10.94 10.46-7.16 3.5-17.37 3.5h-16.67v-61.39h18.52q9.37 0 16.13 3.42t10.43 10.12q3.68 6.7 3.68 16.57m-7.52.25q0-8.27-2.75-13.65-2.75-5.37-8.06-8-5.32-2.62-13-2.62h-10.29v49.17h8.69q12.69 0 19.05-6.26 6.36-6.25 6.36-18.64m-396.07 75.02q-.45 0-.59-.56l-5.11-20.86q-.04-.18-.18-.18-.14 0-.21.18l-4.16 18.09q-.25.98-.02 1.49t1.07.65l.42.07q.45.03.38.42-.1.38-.63.38h-5q-.53 0-.42-.38.07-.39.52-.42l.49-.07q.95-.14 1.4-.65.46-.51.7-1.49l4.59-19.88q.17-.73 0-.98-.18-.24-.95-.38l-.77-.14q-.45-.11-.35-.42.07-.39.6-.39h3.39q.88 0 1.05.77l4.41 18.13q.07.25.23.25t.19-.25l3.68-15.89q.28-1.12 0-1.56-.28-.43-.88-.54l-.59-.1q-.46-.11-.35-.42.07-.39.59-.39h5.01q.52 0 .45.39-.14.38-.56.42l-.49.07q-.94.14-1.38.57-.44.44-.72 1.56l-5 21.74q-.18.77-.81.77m11.27 0q-2.17 0-3.43-1.81-1.26-1.8-1.26-4.88 0-2.27.74-4.37.73-2.1 1.94-3.75 1.21-1.64 2.7-2.61 1.48-.96 2.99-.96 2.17 0 3.43 1.79 1.26 1.78 1.26 4.9 0 2.27-.74 4.37-.73 2.1-1.94 3.75-1.21 1.64-2.69 2.6-1.49.97-3 .97m-.07-.84q1.12 0 2.19-1.09 1.07-1.08 1.94-2.87.88-1.78 1.4-3.97.53-2.19.53-4.39 0-4.38-2.28-4.38-1.08 0-2.17 1.07-1.08 1.07-1.94 2.85-.86 1.79-1.38 3.97-.53 2.19-.53 4.4 0 4.41 2.24 4.41m11.03.07 3.32-13.97q.18-.77.06-1.21-.13-.43-.65-.43-.63 0-1.38.92-.76.93-1.7 3.52-.14.46-.49.46-.53 0-.28-.63.77-2.42 1.63-3.78.85-1.37 1.73-1.93.87-.56 1.61-.56 1.15 0 1.64.86t.04 2.82l-.88 3.78q-.03.24.11.28.14.03.24-.18 1.37-2.83 2.63-4.5 1.26-1.66 2.38-2.36 1.12-.7 2.03-.7 1.29 0 1.89 1.05.59 1.05 0 3.22l-2.66 10.15q-.25.98-.04 1.47t.77.49q.7 0 1.39-.93.68-.92 1.41-3.51.11-.39.46-.39.28 0 .33.21.05.21-.02.49-.66 2.38-1.43 3.73-.77 1.35-1.56 1.87-.79.53-1.59.53-1.26 0-1.89-1.05-.63-1.05-.07-3.26l2.69-10.15q.39-1.36.13-1.89-.27-.52-.76-.52-.77 0-1.75.96t-1.99 2.62q-1.02 1.67-2 3.77t-1.76 4.37q-.79 2.28-1.28 4.45-.11.38-.49.38h-1.44q-.49 0-.38-.45m26.84.77q-1.85 0-2.97-1.46-1.12-1.45-1.12-4.11 0-2.31.82-4.58.82-2.28 2.15-4.13 1.33-1.86 2.93-2.98 1.59-1.12 3.09-1.12 1.65 0 2.37.79.71.79.71 2.12 0 1.57-1.1 3.13-1.1 1.56-3.08 2.78-1.98 1.23-4.64 1.82-.77.18-.8.88-.04.24-.04.5v.51q0 2 .69 3.01.68 1.02 1.87 1.02 1.33 0 2.57-1.23 1.24-1.22 2.08-3.46.11-.32.42-.32.21 0 .27.18.05.17-.02.42-1.12 3.08-2.71 4.65-1.6 1.58-3.49 1.58m-1.29-9.07q-.07.25.09.4.15.16.4.09 2.17-.59 3.64-1.8 1.47-1.21 2.22-2.71.75-1.51.75-2.94 0-1.47-1.15-1.47-1.02 0-2.21 1.19t-2.2 3.11q-1.02 1.93-1.54 4.13m10.74-14.24-6.4 2.52q-.63.24-.81-.21-.14-.35.46-.77l5.49-3.75q.98-.7 1.68-.7t1.04.35q.33.35.33.84 0 .53-.37.91-.37.39-1.42.81m24.85 23.31q-1.26 0-1.89-1.05-.63-1.05-.07-3.26l2.7-10.15q.38-1.36.12-1.89-.26-.52-.75-.52-.7 0-1.61.96-.91.96-1.91 2.61-1 1.64-1.94 3.74-.95 2.1-1.75 4.38-.81 2.27-1.33 4.48-.11.38-.49.38h-1.37q-.49 0-.38-.45l3.22-13.69q.31-1.36.09-1.89-.23-.52-.72-.52-.67 0-1.58.96t-1.89 2.61q-.98 1.64-1.92 3.74-.95 2.1-1.75 4.38-.81 2.27-1.3 4.48-.1.38-.49.38h-1.43q-.49 0-.39-.45l3.33-13.97q.17-.77.05-1.21-.12-.43-.65-.43-.63 0-1.38.92-.75.93-1.7 3.52-.14.46-.49.46-.52 0-.28-.63.77-2.42 1.63-3.78.86-1.37 1.73-1.93.88-.56 1.61-.56 1.16 0 1.65.86t.03 2.82l-.87 3.78q-.04.24.1.28.14.03.25-.18 2.03-4.2 3.67-5.88 1.65-1.68 3.01-1.68 1.3 0 1.84 1.05t.05 3.22l-.73 3.19q-.04.24.1.28.14.03.25-.18 1.33-2.83 2.5-4.5 1.17-1.66 2.22-2.36 1.05-.7 1.96-.7 1.3 0 1.89 1.05.6 1.05 0 3.22l-2.66 10.15q-.24.98-.03 1.47t.77.49q.7 0 1.38-.93.68-.92 1.42-3.51.1-.39.45-.39.28 0 .34.21.05.21-.02.49-.67 2.38-1.44 3.73-.77 1.35-1.55 1.87-.79.53-1.6.53m8.51 0q-1.26 0-1.96-1.09-.7-1.08-.7-3.18 0-2 .56-4.01t1.54-3.83q.98-1.82 2.22-3.22 1.24-1.4 2.63-2.23 1.38-.82 2.74-.82.67 0 1.26.26.6.27.98.83.21.31.42.31t.42-.31q.39-.56.63-.72.25-.16.46-.16.45 0 .35.49l-3.12 13.41q-.52 2.27.7 2.27.81 0 1.46-1.08.64-1.09 1.31-3.36.1-.39.45-.39.25 0 .32.21t0 .49q-.67 3.29-1.79 4.71t-2.69 1.42q-1.37 0-1.94-1.16-.58-1.15-.13-3.15l.46-1.92q.07-.25-.09-.28-.16-.04-.26.17-1.93 3.54-3.41 4.94-1.49 1.4-2.82 1.4m.87-1.79q.84 0 1.86-1.01 1.01-1.02 2.01-2.63 1-1.61 1.84-3.46.84-1.86 1.35-3.57.5-1.72.5-2.91 0-2.13-1.5-2.13-.91 0-1.93.82-1.01.82-1.94 2.22-.93 1.4-1.68 3.17-.75 1.77-1.21 3.67-.45 1.91-.45 3.73 0 1.23.3 1.66.29.44.85.44m19.74-19.7q-.66 0-1.1-.48-.44-.47-.44-1.13 0-.95.58-1.51t1.31-.56q.7 0 1.18.44.47.44.47 1.14 0 .98-.6 1.54-.59.56-1.4.56m-2.87 21.52q-1.15 0-1.64-.86-.49-.85-.04-2.81l2.59-11.1q.18-.77.06-1.21-.13-.43-.65-.43-.63 0-1.38.92-.76.93-1.7 3.52-.14.46-.49.46-.53 0-.28-.63.77-2.42 1.63-3.78.85-1.37 1.73-1.93.87-.56 1.61-.56 1.22 0 1.71.86t.04 2.82l-2.59 11.09q-.18.77-.05 1.21.12.44.64.44.63 0 1.39-.93.75-.93 1.69-3.52.14-.45.49-.45.53 0 .28.63-.73 2.38-1.62 3.76-.9 1.38-1.77 1.94-.88.56-1.65.56m15.33-.03q-1.19 0-1.85-.95-.67-.94-.21-3.04l2.9-12.67q.11-.53-.42-.53h-1.33q-.49 0-.49-.45 0-.25.18-.39.17-.14.42-.14h1.26q.8 0 .94-.73l.84-3.75q.11-.38.49-.38h1.44q.49 0 .38.45l-.87 3.89q-.11.52.42.52h1.99q.6 0 .6.46 0 .52-.74.52h-1.89q-.77 0-.94.74l-2.94 12.81q-.18.77.05 1.2.23.44.79.44.8 0 1.49-.91.68-.91 1.45-3.46.14-.46.45-.46.25 0 .32.21t-.11.77q-.66 2.38-1.45 3.64-.79 1.26-1.59 1.73-.81.48-1.58.48m9.63-.32h-1.44q-.49 0-.38-.45l3.32-13.97q.18-.77.06-1.21-.13-.43-.65-.43-.63 0-1.38.92-.76.93-1.7 3.52-.14.46-.49.46-.53 0-.28-.63.77-2.42 1.63-3.78.85-1.37 1.73-1.93.87-.56 1.61-.56 1.15 0 1.64.86t.04 2.82l-.39 1.64q-.03.25.11.28.14.04.24-.17 1.33-3.05 2.42-4.24 1.08-1.19 2.48-1.19.95 0 1.42.51t.47 1.38q0 .88-.42 1.4-.42.53-1.08.53-.56 0-.81-.28-.24-.28-.36-.65-.13-.37-.27-.65t-.45-.28q-.53 0-1.37 1.33-.84 1.33-1.8 3.59-.96 2.26-1.85 5.06-.9 2.8-1.56 5.74-.11.38-.49.38m14.59.32q-2.17 0-3.43-1.81-1.26-1.8-1.26-4.88 0-2.27.74-4.37.73-2.1 1.94-3.75 1.21-1.64 2.7-2.61 1.48-.96 2.99-.96 2.17 0 3.43 1.79 1.26 1.78 1.26 4.9 0 2.27-.74 4.37-.73 2.1-1.94 3.75-1.21 1.64-2.69 2.6-1.49.97-3 .97m-.07-.84q1.12 0 2.19-1.09 1.07-1.08 1.94-2.87.88-1.78 1.4-3.97.53-2.19.53-4.39 0-4.38-2.28-4.38-1.08 0-2.17 1.07-1.08 1.07-1.94 2.85-.86 1.79-1.38 3.97-.53 2.19-.53 4.4 0 4.41 2.24 4.41m12.81 7.7h-6.3q-.45 0-.45-.39 0-.35.56-.42l.49-.07q.7-.1 1.03-.4.33-.3.51-1.07l4.65-20.09q.07-.28-.08-.44-.16-.15-.44.02-.35.18-.67.37-.31.19-.63.4-.31.21-.52.12-.21-.08-.21-.33 0-.24.35-.49.98-.66 2.03-1.15.59-.28.73-.91l.46-2q.17-.73.91-.73h.63q.42 0 .63.24.21.25.1.7l-.24 1.02q-.11.59.45.49.81-.11 1.54-.11 2.59 0 4.24 1.47 1.64 1.47 1.64 4.52 0 2.38-.87 4.6-.88 2.22-2.31 3.97-1.44 1.75-3.15 2.78-1.72 1.04-3.43 1.04-.95 0-1.79-.39-.52-.24-.63.28l-1.05 4.62q-.17.77.02 1.02.19.24.86.35l.91.14q.63.1.63.42 0 .42-.6.42m2.98-23.1-2.77 11.9q-.63 3.46 1.51 3.46 1.22 0 2.48-1.03t2.35-2.77q1.08-1.73 1.75-3.9.66-2.17.66-4.44 0-2.35-1.01-3.38-1.02-1.03-2.98-1.03-1.75 0-1.99 1.19m12.77 23.1h-6.3q-.45 0-.45-.39 0-.35.56-.42l.49-.07q.7-.1 1.03-.4.33-.3.51-1.07l4.65-20.09q.07-.28-.08-.44-.16-.15-.44.02-.35.18-.67.37-.31.19-.63.4-.31.21-.52.12-.21-.08-.21-.33 0-.24.35-.49.98-.66 2.03-1.15.59-.28.73-.91l.46-2q.17-.73.91-.73h.63q.42 0 .63.24.21.25.1.7l-.24 1.02q-.11.59.45.49.81-.11 1.54-.11 2.59 0 4.24 1.47 1.64 1.47 1.64 4.52 0 2.38-.87 4.6-.88 2.22-2.31 3.97-1.44 1.75-3.15 2.78-1.72 1.04-3.43 1.04-.95 0-1.79-.39-.52-.24-.63.28l-1.05 4.62q-.17.77.02 1.02.19.24.86.35l.91.14q.63.1.63.42 0 .42-.6.42m2.98-23.1-2.77 11.9q-.63 3.46 1.51 3.46 1.22 0 2.48-1.03t2.35-2.77q1.08-1.73 1.75-3.9.66-2.17.66-4.44 0-2.35-1.01-3.38-1.02-1.03-2.98-1.03-1.75 0-1.99 1.19m14.52 16.24q-2.17 0-3.43-1.81-1.26-1.8-1.26-4.88 0-2.27.74-4.37.73-2.1 1.94-3.75 1.21-1.64 2.7-2.61 1.48-.96 2.99-.96 2.17 0 3.43 1.79 1.26 1.78 1.26 4.9 0 2.27-.74 4.37-.73 2.1-1.94 3.75-1.21 1.64-2.69 2.6-1.49.97-3 .97m-.07-.84q1.12 0 2.19-1.09 1.07-1.08 1.94-2.87.88-1.78 1.4-3.97.53-2.19.53-4.39 0-4.38-2.28-4.38-1.08 0-2.17 1.07-1.08 1.07-1.94 2.85-.86 1.79-1.38 3.97-.53 2.19-.53 4.4 0 4.41 2.24 4.41m18.69.84q-1.19 0-1.85-.95-.67-.94-.21-3.04l2.9-12.67q.11-.53-.42-.53h-1.33q-.49 0-.49-.45 0-.25.18-.39.17-.14.42-.14h1.26q.8 0 .94-.73l.84-3.75q.11-.38.49-.38h1.44q.49 0 .38.45l-.87 3.89q-.11.52.42.52h1.99q.6 0 .6.46 0 .52-.74.52h-1.89q-.77 0-.94.74l-2.94 12.81q-.18.77.05 1.2.23.44.79.44.8 0 1.49-.91.68-.91 1.45-3.46.14-.46.45-.46.25 0 .32.21t-.11.77q-.66 2.38-1.45 3.64-.79 1.26-1.59 1.73-.81.48-1.58.48m9.07 0q-1.26 0-1.96-1.09-.7-1.08-.7-3.18 0-2 .56-4.01t1.54-3.83q.98-1.82 2.22-3.22 1.24-1.4 2.63-2.23 1.38-.82 2.74-.82.67 0 1.26.26.6.27.98.83.21.31.42.31t.42-.31q.39-.56.63-.72.25-.16.46-.16.45 0 .35.49l-3.12 13.41q-.52 2.27.7 2.27.81 0 1.46-1.08.64-1.09 1.31-3.36.1-.39.45-.39.25 0 .32.21t0 .49q-.67 3.29-1.79 4.71t-2.69 1.42q-1.37 0-1.94-1.16-.58-1.15-.13-3.15l.46-1.92q.07-.25-.09-.28-.16-.04-.26.17-1.93 3.54-3.41 4.94-1.49 1.4-2.82 1.4m.87-1.79q.84 0 1.86-1.01 1.01-1.02 2.01-2.63 1-1.61 1.84-3.46.84-1.86 1.35-3.57.5-1.72.5-2.91 0-2.13-1.5-2.13-.91 0-1.93.82-1.01.82-1.94 2.22-.93 1.4-1.68 3.17-.75 1.77-1.21 3.67-.45 1.91-.45 3.73 0 1.23.3 1.66.29.44.85.44m16.28 1.47h-1.44q-.49 0-.38-.45l3.32-13.97q.18-.77.06-1.21-.13-.43-.65-.43-.63 0-1.38.92-.76.93-1.7 3.52-.14.46-.49.46-.53 0-.28-.63.77-2.42 1.63-3.78.85-1.37 1.73-1.93.87-.56 1.61-.56 1.15 0 1.64.86t.04 2.82l-.39 1.64q-.03.25.11.28.14.04.24-.17 1.33-3.05 2.42-4.24 1.08-1.19 2.48-1.19.95 0 1.42.51t.47 1.38q0 .88-.42 1.4-.42.53-1.08.53-.56 0-.81-.28-.24-.28-.36-.65-.13-.37-.27-.65t-.45-.28q-.53 0-1.37 1.33-.84 1.33-1.8 3.59-.96 2.26-1.85 5.06-.9 2.8-1.56 5.74-.11.38-.49.38m12.35.32q-1.29 0-1.99-1.09-.7-1.08-.7-3.18 0-2 .56-4.01t1.54-3.83q.98-1.82 2.22-3.22 1.24-1.4 2.63-2.23 1.38-.82 2.74-.82.95 0 1.65.49.49.32.59-.21l1.12-4.62q.18-.63.02-.87-.16-.25-.65-.28l-1.05-.11q-.52-.03-.45-.45.07-.32.49-.39 1.26-.21 2.24-.51.98-.29 1.57-.78.28-.21.53-.21.42 0 .31.52l-4.97 21.53q-.52 2.27.7 2.27.81 0 1.46-1.08.64-1.09 1.31-3.36.1-.39.45-.39.25 0 .32.21t0 .49q-.67 3.29-1.84 4.71t-2.75 1.42q-1.36 0-1.94-1.16-.58-1.15-.12-3.15l.38-1.61q.07-.24-.08-.28-.16-.03-.27.18-1.68 3.29-3.18 4.65-1.51 1.37-2.84 1.37m.84-1.79q.84 0 1.86-1.01 1.01-1.02 2.01-2.63 1-1.61 1.84-3.46.84-1.86 1.35-3.57.5-1.72.5-2.91 0-2.13-1.5-2.13-.91 0-1.93.82-1.01.82-1.94 2.22-.93 1.4-1.68 3.17-.75 1.77-1.21 3.67-.45 1.91-.45 3.73 0 1.23.33 1.66.33.44.82.44m19.74-19.7q-.66 0-1.1-.48-.44-.47-.44-1.13 0-.95.58-1.51t1.31-.56q.7 0 1.18.44.47.44.47 1.14 0 .98-.6 1.54-.59.56-1.4.56m-2.87 21.52q-1.15 0-1.64-.86-.49-.85-.04-2.81l2.59-11.1q.18-.77.06-1.21-.13-.43-.65-.43-.63 0-1.38.92-.76.93-1.7 3.52-.14.46-.49.46-.53 0-.28-.63.77-2.42 1.63-3.78.85-1.37 1.73-1.93.87-.56 1.61-.56 1.22 0 1.71.86t.04 2.82l-2.59 11.09q-.18.77-.05 1.21.12.44.64.44.63 0 1.39-.93.75-.93 1.69-3.52.14-.45.49-.45.53 0 .28.63-.73 2.38-1.62 3.76-.9 1.38-1.77 1.94-.88.56-1.65.56"></path><circle r="95.431" fill="#363636" transform="translate(275.534 108.403)scale(1.0954)"></circle><path fill="#cecece" d="M305.757 159.804h-67.171a2.799 2.799 0 0 1-2.799-2.799v-69.27c0-16.989 17.003-31.879 36.384-31.879 19.732 0 36.385 14.554 36.385 31.767v69.396a2.799 2.799 0 0 1-2.799 2.799m-64.372-5.598h61.573V87.623c0-13.938-14.386-26.169-30.787-26.169s-30.786 12.273-30.786 26.28z"></path><path fill="#cecece" d="M336.544 159.804H213.397a2.799 2.799 0 1 1 0-5.598h123.147a2.799 2.799 0 1 1 0 5.598M272.17 123.42a2.799 2.799 0 0 1-2.798-2.8V75.84a2.799 2.799 0 0 1 5.597 0v44.78a2.799 2.799 0 0 1-2.799 2.8"></path><path fill="#cecece" d="M286.165 92.633h-27.988a2.799 2.799 0 0 1 0-5.598h27.988a2.799 2.799 0 0 1 0 5.598m19.592 67.17q-.588 0-1.175-.251a2.799 2.799 0 0 1-1.372-3.708l14.176-30.871a2.799 2.799 0 1 1 5.08 2.323l-14.162 30.885a2.799 2.799 0 0 1-2.547 1.623"></path><path fill="#cecece" d="M305.757 159.804a2.799 2.799 0 0 1-1.623-5.066l19.591-13.994a2.8 2.8 0 1 1 3.247 4.562L307.38 159.3a2.799 2.799 0 0 1-1.623.504m-69.97 0a2.799 2.799 0 0 1-2.715-2.1l-6.34-25.188a2.8 2.8 0 0 1 5.43-1.372l6.34 25.19a2.799 2.799 0 0 1-2.715 3.47"></path><path fill="#cecece" d="M235.787 159.804a2.799 2.799 0 0 1-1.623-.518l-12.693-9.054a2.799 2.799 0 1 1 3.26-4.534l12.68 9.04a2.799 2.799 0 0 1-1.624 5.066"></path></svg></svg>