<svg xmlns="http://www.w3.org/2000/svg" version="1.1" xmlns:xlink="http://www.w3.org/1999/xlink" width="1500" height="266" viewBox="0 0 1500 266"><svg xml:space="preserve" width="1500" height="266" data-version="2" data-id="lg_R9Ch4z8AjUuyg9c94a" viewBox="0 0 557 266" x="0" y="0"><rect width="100%" height="100%" fill="transparent"></rect><path fill="#fff" d="M39.5 188.102v7.55H15.82v-7.55zm3.35-16.88v7.49H12.83v33.82H5.34v-37.53q0-.78.29-1.47.28-.69.79-1.21.5-.52 1.19-.81.69-.29 1.5-.29zm13.59 0v41.31h-7.49v-41.31zm46.1 0v7.49H86.03v33.82h-7.49v-33.82H62v-7.49zm46.78 0v38.12q0 .8-.3 1.49-.3.7-.81 1.2-.5.5-1.19.79-.69.29-1.47.29-.69 0-1.4-.26-.7-.26-1.25-.83l-27.37-28.58v29.09h-7.49v-38.11q0-1.15.65-2.09t1.65-1.4q1.07-.43 2.19-.21 1.13.21 1.93 1.05l27.37 28.55v-29.1zm42.67 16.88v7.55h-23.65v-7.55zm3.37 16.94v7.49h-27.02q-1.56 0-3.4-.54-1.85-.55-3.42-1.8-1.57-1.26-2.62-3.26-1.05-2-1.05-4.91v-27.02q0-.78.29-1.47t.79-1.21q.5-.52 1.2-.81.69-.29 1.49-.29h33.74v7.49h-30.02v23.31q0 1.47.78 2.25.78.77 2.27.77zm46.93-4.66q0 2.21-.56 3.99-.57 1.77-1.49 3.12-.92 1.36-2.16 2.31-1.24.95-2.56 1.55-1.33.61-2.7.9-1.36.28-2.57.28h-28.9v-7.49h28.9q2.16 0 3.35-1.26 1.2-1.27 1.2-3.4 0-1.04-.32-1.9-.32-.87-.91-1.5-.59-.64-1.44-.98-.85-.35-1.88-.35h-17.23q-1.82 0-3.92-.65-2.1-.64-3.9-2.09-1.8-1.44-3-3.77-1.19-2.33-1.19-5.7t1.19-5.69q1.2-2.32 3-3.78 1.8-1.45 3.9-2.1 2.1-.65 3.92-.65h25.49v7.49h-25.49q-2.13 0-3.33 1.3-1.19 1.3-1.19 3.43 0 2.16 1.19 3.41 1.2 1.25 3.33 1.25h17.28q1.21.03 2.57.34 1.35.3 2.69.93 1.34.64 2.55 1.6 1.21.97 2.15 2.32.93 1.35 1.48 3.11.55 1.76.55 3.98m45.92 0q0 2.21-.56 3.99-.56 1.77-1.49 3.12-.92 1.36-2.16 2.31-1.24.95-2.56 1.55-1.33.61-2.69.9-1.37.28-2.58.28h-28.9v-7.49h28.9q2.16 0 3.35-1.26 1.2-1.27 1.2-3.4 0-1.04-.32-1.9-.31-.87-.91-1.5-.59-.64-1.44-.98-.85-.35-1.88-.35h-17.23q-1.82 0-3.92-.65-2.1-.64-3.9-2.09-1.8-1.44-3-3.77-1.19-2.33-1.19-5.7t1.19-5.69q1.2-2.32 3-3.78 1.8-1.45 3.9-2.1 2.1-.65 3.92-.65h25.5v7.49h-25.5q-2.13 0-3.33 1.3-1.19 1.3-1.19 3.43 0 2.16 1.19 3.41 1.2 1.25 3.33 1.25h17.28q1.21.03 2.57.34 1.35.3 2.69.93 1.34.64 2.55 1.6 1.21.97 2.15 2.32.93 1.35 1.48 3.11.55 1.76.55 3.98m59.58-12.28v7.55H324.1v-7.55zm3.34-16.88v7.49h-30.02v33.82h-7.49v-37.53q0-.78.29-1.47.28-.69.79-1.21.5-.52 1.19-.81.7-.29 1.5-.29zm49.4 16.71v7.89q0 3.78-1.29 6.95-1.3 3.17-3.6 5.47-2.31 2.31-5.46 3.59-3.16 1.28-6.87 1.28h-10.14q-3.72 0-6.89-1.28-3.17-1.28-5.47-3.59-2.31-2.3-3.62-5.47t-1.31-6.95v-7.89q0-3.74 1.31-6.93 1.31-3.18 3.62-5.47 2.3-2.29 5.47-3.59 3.17-1.29 6.89-1.29h10.14q3.71 0 6.87 1.29 3.15 1.3 5.46 3.59 2.3 2.29 3.6 5.47 1.29 3.19 1.29 6.93m-7.49 7.89v-7.89q0-2.22-.7-4.02-.71-1.8-1.99-3.08t-3.08-1.99q-1.8-.7-3.96-.7h-10.14q-2.19 0-3.99.7-1.8.71-3.1 1.99t-2 3.08q-.71 1.8-.71 4.02v7.89q0 2.22.71 4.02.7 1.8 2 3.09 1.3 1.28 3.1 1.98 1.8.71 3.99.71h10.08q2.19 0 3.99-.71 1.8-.7 3.1-1.98 1.29-1.29 2-3.09.7-1.8.7-4.02m52.84 9.22v7.49h-34.17q-.81 0-1.5-.28-.69-.29-1.19-.8-.51-.5-.79-1.19-.29-.69-.29-1.5v-37.54h7.49v33.82zm43.44 0v7.49h-34.17q-.8 0-1.49-.28-.69-.29-1.2-.8-.5-.5-.79-1.19-.29-.69-.29-1.5v-37.54h7.49v33.82zm13.05-33.82v41.31h-7.49v-41.31zm49.29 3.78v37.53h-7.49v-10.14h-26.33v10.14h-7.49v-20.65q0-4.53 1.56-8.33 1.55-3.8 4.32-6.54 2.76-2.73 6.54-4.26 3.77-1.53 8.24-1.53h16.88q.78 0 1.47.29t1.21.81q.52.52.81 1.21.28.69.28 1.47m-33.82 16.88v3.02h26.33v-16.19h-13.16q-.35 0-1.46.1-1.11.1-2.56.51-1.46.4-3.07 1.24-1.61.83-2.97 2.3-1.35 1.47-2.23 3.67-.88 2.21-.88 5.35m-340.83 70.851h-2.24l7.36-17.83 1.6.7zm14.81 0h-2.83l-7.14-18.11 2.22-.76zm-4.84-5.62h-8.15v-1.71h8.15zm-11.01 5.62h-2.63l-.17-.89q.65-.31 1.36-.55.72-.24 1.42-.43zm4.6 0h-3.92l.08-1.76 3.86.45zm9.21 0h-4.09l-.17-.89q.65-.31 1.36-.55.71-.24 1.41-.43zm3.41 0h-3.92l.09-1.76 3.86.45zm5.04 0h-2.49v-19.54l1.37-1.04 1.12.98zm-2.26 0h-2.22l-.14-.92q.51-.25 1.36-.53.86-.28 1.39-.42zm4.11 0h-2.6l.03-1.87q.72.05 1.49.18t1.25.35zm-3.83-18.59-2.61.2-.33-1.32q.84-.39 1.89-.61 1.05-.23 1.91-.26l.37.7zm9.99 18.59h-2.49v-19.54l1.37-1.04 1.12.98zm-2.27 0h-2.21l-.14-.92q.51-.25 1.36-.53.85-.28 1.39-.42zm4.12 0h-2.6l.02-1.87q.73.05 1.5.18t1.25.35zm-3.84-18.59-2.6.2-.34-1.32q.84-.39 1.89-.61 1.05-.23 1.92-.26l.37.7zm16.44 17.169-4.37 1.84q-1.71 0-2.99-.56-1.29-.56-2.16-1.51-.87-.95-1.29-2.15-.42-1.21-.42-2.52 0-1.4.46-2.72.47-1.32 1.31-2.35.84-1.04 2.03-1.65 1.19-.62 2.61-.62 1.1 0 2.02.36.92.37 1.61 1.03.69.65 1.05 1.55.36.9.34 1.96l-2.38.98q.14-1.23-.37-2.21-.5-.98-1.47-1.51-.96-.54-2.2-.45-.86.45-1.38 1.29-.52.84-.76 1.82-.24.98-.24 1.93 0 1.65.62 2.81.62 1.16 1.65 1.78 1.04.62 2.33.62.84 0 1.73-.26.9-.25 1.85-.67zm.2-7.34-1.6 1.57-7.42-.14v-1.46l8.71-.39zm5.65 8.76h-2.49v-12.51l1.37-1.04 1.12.98zm8.65 0h-2.49v-8.28q0-1.71-.53-2.37-.53-.66-1.26-.66-.56 0-1.33.32-.77.33-1.58.8-.81.48-1.49 1.01l-.5-1.18q1.32-.92 2.56-1.63 1.25-.72 2.21-1.14.97-.42 1.47-.42.54.09 1.04.39.5.31.91.7.41.4.6.79.14.25.23.64.08.39.12 1.02.04.63.04 1.61zm-10.64-11.56-2.6.2-.34-1.32q.84-.39 1.89-.62 1.05-.22 1.92-.25l.37.7zm-.14 11.56h-2.21l-.14-.92q.51-.25 1.36-.53.85-.28 1.39-.42zm3.78 0h-2.6l.03-1.87q.73.05 1.5.18t1.24.35zm5.27 0h-2.21l-.14-.92q.5-.25 1.35-.53.86-.28 1.39-.42zm3.53 0h-2.72l.03-1.87q.73.05 1.55.18.83.13 1.3.35zm14.16-.86-2.82 1.28q-.31-.02-.76-.37t-.84-.89q-.39-.53-.53-1.06v-7.03q0-1.31-.31-1.97-.31-.66-1.06-1.02-.79.02-1.7.16-.91.14-1.47.31l-.22 2.91-1.49.12q-.36-.7-.56-1.6-.19-.9-.25-1.76.65-.37 1.53-.72t1.8-.64q.93-.3 1.71-.48.79-.18 1.21-.18.61 0 1.21.32.61.32 1.1.79.49.46.68.85.2.36.27.9.07.53.07 2.01v6.53q0 .3.21.43t.52.13q.3 0 .65-.09.35-.08.63-.17zm-4.56-.82-3.42 2.08q-1.54.16-2.5-.34-.97-.5-1.43-1.33-.46-.83-.46-1.64 0-.81.46-1.61t1.5-1.38l6.16-.17-.11 1.51-.45-.03q-.79-.08-1.64-.07-.85.02-1.6.17-.74.15-1.21.53-.48.38-.48 1.05 0 .37.18.72t.55.57q.81.03 1.68-.2.87-.22 1.61-.53.74-.31 1.16-.5zm13.61.42-3.64 1.68q-.59.03-1.25-.3-.66-.34-1.12-.9-.46-.56-.46-1.15v-10.81l1.18-3.75h1.31v13.08q0 .84.2 1.17.19.34.73.34.53 0 1.24-.21.72-.21 1.33-.43zm-5.83-9.77-2.38.06-.19-1.35q.84-.39 1.64-.56.79-.16 1.52-.25l.65.7zm4.57.09h-4.71v-2.16h5.91l.11.81zm6.91 10.941h-2.49v-12.51l1.37-1.04 1.12.98zm-2.26 0h-2.22l-.14-.92q.51-.25 1.36-.53.86-.28 1.39-.42zm4.11 0h-2.6l.03-1.87q.72.05 1.49.18t1.25.35zm-3.83-11.56-2.61.2-.33-1.32q.84-.39 1.89-.62 1.05-.22 1.91-.25l.37.7zm.86-4.48q-.53-.22-1.17-.71-.65-.49-.98-.97.31-.64.78-1.25.48-.6.93-.88.58.23 1.19.74.6.52.91.94-.2.56-.69 1.18-.49.61-.97.95m16.1 16.6q-1.12 0-2.35-.35t-2.6-1.1l1.03-2.47q1.07.7 2.52 1.33 1.46.63 3.03.86.36-.31.56-.72.19-.4.19-.91 0-.81-.5-1.34t-1.29-.92q-.78-.4-1.68-.76-.89-.36-1.68-.84-.78-.48-1.29-1.19-.5-.71-.5-1.81 0-1.31.76-2.21.75-.89 1.97-1.34 1.22-.45 2.59-.45.98 0 1.89.22.91.23 1.69.62l-.86 2.24q-.96-.81-2.31-1.15-1.36-.33-2.48-.22-.53.33-.72.77-.18.43-.18.82 0 .76.51 1.25.5.49 1.3.87t1.71.75q.91.38 1.7.87.8.49 1.31 1.25.5.75.5 1.87 0 1.8-1.34 2.93-1.35 1.13-3.48 1.13m3.87-9.77h-1.51l-.31-3.44 2.29-.17q.06.9-.05 1.82t-.42 1.79m8.82 9.77q-1.77 0-3.21-.88t-2.31-2.49q-.87-1.61-.87-3.79 0-2.24.89-3.83.88-1.58 2.32-2.4 1.44-.83 3.12-.83 1.74 0 3.12.85 1.39.86 2.22 2.47.82 1.61.82 3.9 0 2.33-.84 3.88-.84 1.56-2.22 2.34-1.39.78-3.04.78m.31-1.82q.64 0 1.34-.19.78-.53 1.18-1.35.39-.81.51-1.7.13-.9.13-1.63 0-1.54-.38-2.85-.38-1.32-1.2-2.13-.83-.81-2.17-.81-.65 0-1.21.18-.56.18-.92.43-.73.87-1.02 2.06-.3 1.19-.3 2.34 0 1.45.42 2.76.42 1.3 1.32 2.1.9.79 2.3.79m10.97 1.259h-2.49v-15.76q0-1.65.67-2.83.67-1.17 1.72-1.8 1.05-.63 2.23-.63.81 0 1.64.32.82.32 1.52 1.05l-1.56 2.24q-.96-.95-2.09-1.25-1.13-.29-2.14.1l.67 5.74-.17.64zm-2.04 0h-2.21l-.14-.92q.5-.25 1.35-.53.86-.28 1.39-.42zm4.42 0h-2.6l.03-1.87q.72.05 1.49.18t1.25.35zm-4.2-11.03-2.41.09-.16-1.38q.84-.39 1.63-.56.8-.16 1.53-.22l.62.67zm3.67.09h-3.08v-2.16h4.31l.09.78zm6.94 10.94h-2.49v-15.76q0-1.65.67-2.83.68-1.17 1.73-1.8 1.05-.63 2.22-.63.81 0 1.64.32.83.32 1.53 1.05l-1.57 2.24q-.95-.95-2.09-1.25-1.13-.29-2.14.1l.67 5.74-.17.64zm-2.04 0h-2.21l-.14-.92q.5-.25 1.36-.53.85-.28 1.38-.42zm4.42 0h-2.6l.03-1.87q.73.05 1.5.18t1.24.35zm-4.2-11.03-2.4.09-.17-1.38q.84-.39 1.64-.56.79-.16 1.52-.22l.62.67zm3.67.09h-3.08v-2.16h4.31l.09.78zm7.48 10.94h-2.49v-12.51l1.37-1.04 1.12.98zm-.81-6.94-.56-1.62 4.31-4.6q.95-.39 1.75-.3.8.08 1.47.5.03.53 0 1.11-.03.57-.09 1.16-.05.59-.16 1.16-.12.57-.26 1.11h-1.51l-.31-3.08q-.7.39-1.55 1.06-.85.67-1.68 1.55-.83.89-1.41 1.95m-1.18-4.62-2.6.2-.34-1.32q.84-.39 1.89-.62 1.05-.22 1.92-.25l.36.7zm-.2 11.56h-2.21l-.14-.92q.51-.25 1.36-.53.85-.28 1.39-.42zm4.9 0h-3.16l.03-1.87q.47 0 1.13.08.66.09 1.26.2.6.11.91.25zm15.35-1.42-4.37 1.84q-1.71 0-3-.56-1.28-.56-2.15-1.51-.87-.95-1.29-2.15-.42-1.21-.42-2.52 0-1.4.46-2.72.46-1.32 1.3-2.35.84-1.04 2.03-1.65 1.19-.62 2.62-.62 1.09 0 2.02.36.92.37 1.61 1.03.68.65 1.05 1.55.36.9.33 1.96l-2.38.98q.14-1.23-.36-2.21t-1.47-1.51q-.97-.54-2.2-.45-.87.45-1.38 1.29-.52.84-.76 1.82-.24.98-.24 1.93 0 1.65.62 2.81.61 1.16 1.65 1.78 1.04.62 2.32.62.84 0 1.74-.26.9-.25 1.85-.67zm.19-7.34-1.59 1.57-7.42-.14v-1.46l8.71-.39zm5.66 8.76h-2.49v-12.51l1.37-1.04 1.12.98zm8.65 0h-2.49v-8.28q0-1.71-.53-2.37-.53-.66-1.26-.66-.56 0-1.33.32-.77.33-1.58.8-.82.48-1.49 1.01l-.5-1.18q1.31-.92 2.56-1.63 1.25-.72 2.21-1.14.97-.42 1.47-.42.53.09 1.04.39.5.31.91.7.4.4.6.79.14.25.22.64.09.39.13 1.02.04.63.04 1.61zm-10.64-11.56-2.6.2-.34-1.32q.84-.39 1.89-.62 1.05-.22 1.92-.25l.36.7zm-.14 11.56h-2.21l-.14-.92q.5-.25 1.36-.53.85-.28 1.38-.42zm3.78 0h-2.6l.03-1.87q.72.05 1.49.18t1.25.35zm5.27 0h-2.22l-.14-.92q.51-.25 1.36-.53.86-.28 1.39-.42zm3.52 0h-2.71l.03-1.87q.72.05 1.55.18.83.13 1.3.35zm11.71-2.489-4.34 2.91q-1.88.03-3.33-.91-1.46-.93-2.27-2.53-.81-1.6-.81-3.5 0-1.62.57-2.95t1.57-2.29q.99-.95 2.27-1.45 1.27-.51 2.64-.51 1.63 0 2.82.62t1.63 1.43l-1.2 2.04q-.45-.73-1.33-1.3-.88-.57-2.02-.84-1.13-.27-2.33.01-.96.87-1.47 2.19-.52 1.31-.52 2.74 0 1.4.46 2.52t1.33 1.78q.87.66 2.02.66.89 0 2-.48 1.1-.47 2.39-1.51zm3.55 1.63-2.82 1.28q-.31-.02-.76-.37t-.83-.89q-.37-.53-.51-1.06v-17.64l1.37-1.04 1.12 1.01v17.17q0 .3.21.43t.52.13q.3 0 .65-.09.35-.08.63-.17zm-4.42-17.73-2.6.2-.34-1.32q.84-.39 1.89-.61 1.05-.23 1.92-.26l.36.7zm11.31 19.15q-1.76 0-3.2-.88-1.45-.88-2.31-2.49-.87-1.61-.87-3.79 0-2.24.88-3.83.88-1.58 2.32-2.4 1.45-.83 3.13-.83 1.73 0 3.12.85 1.38.86 2.21 2.47.83 1.61.83 3.9 0 2.33-.84 3.88-.84 1.56-2.23 2.34-1.39.78-3.04.78m.31-1.82q.64 0 1.34-.19.79-.53 1.18-1.35.39-.81.52-1.7.12-.9.12-1.63 0-1.54-.37-2.85-.38-1.32-1.21-2.13-.82-.81-2.17-.81-.64 0-1.2.18-.56.18-.93.43-.72.87-1.02 2.06-.29 1.19-.29 2.34 0 1.45.42 2.76.42 1.3 1.31 2.1.9.79 2.3.79M306.27 49.155l1.161-26.495q.115-.588.196-1.193c.56-9.443-6.626-17.555-16.067-18.143-1.602-.098-16.1-.85-32.69 3.056a81.725 81.725 0 0 0-30.696 14.204 17.326 17.326 0 0 0-5.77 18.192l11.033 35.518 11.687.098-9.921-29.061 14.677 32.493-44.687-.376-.163 21.412 61.424.523h.082a10.722 10.722 0 0 0 9.758-15.135l-18.699-41.386c2.566-1.144 5.623-2.288 9.137-3.105a91.532 91.532 0 0 1 18.862-2.256l2.665-14.285-3.466 36.874a8.565 8.565 0 0 0 10.592 9.12l41.075-12.814-2.877-11.638z"></path><path fill="#fff" d="M349.095 16.023a20.268 20.268 0 1 0-37.66 14.956c4.332 10.083 15.904 14.885 26.104 10.835 10.199-4.05 15.322-15.484 11.556-25.791M295.548 71.53q-1.176.261-2.402.294l10.33 28.195 11.507-3.433-6.947-30.189zM187.083 98.859l14.53.115 1.406-21.396-15.756-.13zm-57.253 18.083h-11.84v-24.52h10.74v3.27h-7.04v6.77h5.67v3.34h-5.67v7.84h8.14zm9.41.331q-1.4 0-2.77-.35t-2.44-.87q-1.07-.51-1.6-1.05l1.77-3.17q.37.3 1.15.79.78.48 1.82.85 1.03.37 2.07.37 1.7 0 2.85-.8 1.15-.81 1.15-2.34 0-1.27-.67-2.1-.66-.84-1.75-1.47-1.08-.63-2.33-1.22-1.26-.58-2.39-1.31-1.3-.87-2.27-2.31-.97-1.43-.97-3.7 0-2.24 1.02-3.67 1.02-1.43 2.7-2.15 1.69-.72 3.69-.72 1.6 0 2.74.34 1.13.33 1.9.8.77.46 1.2.83l-1.77 3.04q-.57-.6-1.7-1.12-1.14-.52-2.54-.52-1.63 0-2.6.75-.97.75-.97 2.22 0 1.3.87 2.22.87.92 2.22 1.67 1.35.75 2.79 1.51 1.43.77 2.53 1.81.9.8 1.54 2 .63 1.2.63 2.7 0 2.27-1.05 3.84-1.05 1.56-2.82 2.35-1.77.78-4 .78m20.25-.331h-3.71v-21.25h-6.27v-3.27h16.32v3.27h-6.34zm10.41.33q-1.01 0-1.71-.68-.7-.69-.7-1.69 0-1.03.69-1.71.68-.69 1.72-.69 1.06 0 1.73.69.67.68.67 1.71 0 1-.69 1.69-.68.68-1.71.68m217.72-1.75h-14.5l7.16-8.96q.58-.76 1.32-1.84.74-1.09 1.31-2.27.56-1.17.56-2.19 0-1.59-.85-2.46-.86-.87-2.57-.87-1.19 0-2 .52t-1.32 1.22q-.51.7-.8 1.25l-2.69-1.45q.55-1.05 1.43-2.11.89-1.05 2.22-1.78 1.33-.72 3.25-.72 2.2 0 3.68.78t2.22 2.14q.74 1.37.74 3.11 0 1.85-.92 3.8-.91 1.94-2.56 3.97l-3.95 4.99h8.27zm11.57.431q-2.12 0-3.6-.87-1.47-.87-2.4-2.39-.93-1.52-1.35-3.54-.42-2.01-.42-4.27 0-2.35.4-4.35.41-2.01 1.31-3.5.9-1.49 2.39-2.33 1.5-.84 3.67-.84 2.9 0 4.58 1.42 1.68 1.42 2.42 3.9t.74 5.7q0 3.1-.77 5.62-.76 2.52-2.46 3.99-1.7 1.46-4.51 1.46m0-2.95q1.31 0 2.13-.7.83-.7 1.28-1.89.45-1.18.62-2.62.18-1.44.18-2.91 0-1.63-.18-3.08-.17-1.45-.62-2.58-.45-1.13-1.28-1.78-.82-.66-2.13-.66-1.3 0-2.15.66-.84.65-1.29 1.78-.45 1.13-.62 2.58-.17 1.45-.17 3.08 0 1.47.17 2.91.17 1.44.62 2.61.45 1.17 1.29 1.88.85.72 2.15.72m25.93 2.519h-14.5l7.16-8.96q.58-.76 1.32-1.84.74-1.09 1.3-2.27.57-1.17.57-2.19 0-1.59-.86-2.46-.85-.87-2.56-.87-1.19 0-2 .52-.82.52-1.32 1.22-.51.7-.8 1.25l-2.7-1.45q.55-1.05 1.44-2.11.88-1.05 2.22-1.78 1.33-.72 3.24-.72 2.21 0 3.69.78t2.22 2.14q.74 1.37.74 3.11 0 1.85-.92 3.8-.91 1.94-2.56 3.97l-3.95 4.99h8.27zm16.61 0h-3.39v-5.34h-9.74l6.12-16.7 3.01 1.13-4.61 12.53h5.22l.17-4.85h3.22v4.85h2.96v3.04h-2.96z"></path></svg></svg>