<svg xmlns="http://www.w3.org/2000/svg" version="1.1" xmlns:xlink="http://www.w3.org/1999/xlink" width="1500" height="1500" viewBox="0 0 1500 1500"><rect width="1500" height="1500" x="0" y="0" id="background" stroke="transparent" fill="#002400"></rect><svg xml:space="preserve" width="1000" height="1000" data-version="2" data-id="lg_18MaH6XJaKt2zfKzpN" viewBox="0 0 471 569" x="250" y="250"><rect width="100%" height="100%" fill="transparent"></rect><path fill="#f5baff" d="M116.51 344.78q-7.95 0-12.92-2.85-4.97-2.86-7.64-8.13-2.67-5.27-3.68-12.43-1-7.16-1-15.85v-12.69h14.92v13.29q0 13.73 1.97 19.63 1.96 5.9 8.49 5.9 4.53 0 6.65-2.12 2.11-2.11 2.71-6.79.59-4.67.59-12.32 0-8.76-3.08-15.07-3.08-6.3-8.87-12.09l-8.54-8.54q-3.71-3.78-7.27-8.27-3.56-4.49-5.9-10.21-2.34-5.71-2.34-13.06 0-9.87 2.08-17.07 2.08-7.2 7.57-11.13 5.49-3.94 15.59-3.94 7.94 0 12.73 2.75 4.78 2.74 7.2 7.83 2.41 5.08 3.19 12.06.78 6.98.78 15.44v7.71h-14.7v-8.75q0-7.94-.63-13.25t-2.56-7.98q-1.93-2.67-6.01-2.67-3.71 0-6.05 1.82t-3.38 5.6q-1.04 3.79-1.04 9.72 0 5.2 1.26 8.58 1.27 3.37 3.83 6.27 2.56 2.89 6.27 6.82l8.9 9.43q7.06 7.35 11.55 16.44 4.49 9.09 4.49 21.12 0 10.83-2.12 18.62-2.11 7.8-7.53 11.99t-15.51 4.19m58.33 0q-4.97 0-9.2-2.45-4.23-2.44-6.83-7.9-2.6-5.45-2.6-14.29v-88.17h15.22v86.47q0 6.45 2.3 9.79 2.3 3.34 7.27 3.34 5.49 0 8.13-3.82 2.63-3.82 2.63-9.68v-86.1h15.29V343.3h-15.29v-11.36q-1.63 5.2-5.86 9.02-4.23 3.82-11.06 3.82m74.37 0q-11.88 0-18.04-7.46-6.16-7.45-6.16-24.75v-8.38h14.77v8.31q0 9.35 2.04 14.32 2.04 4.98 6.72 4.98t6.87-3.05q2.19-3.04 2.19-10.91 0-3.93-1.19-7.83-1.19-3.89-3.64-7.72-2.45-3.82-6.31-7.46l-7.86-7.49q-7.06-6.76-10.77-14.36-3.71-7.61-3.71-16.15 0-13.5 6.39-19.85 6.38-6.34 17.59-6.34 7.49 0 12.61 3.26 5.12 3.27 7.72 10.84 2.6 7.57 2.6 20.63v5.34h-14.47v-7.72q0-9.35-1.82-14.32-1.82-4.97-6.5-4.97-4.52 0-6.79 2.63-2.26 2.64-2.48 9.61-.08 3.57.92 7.2 1.01 3.64 3.31 7.2 2.3 3.57 5.93 6.98l8.02 7.5q7.79 7.19 11.76 15.47 3.97 8.28 3.97 17.48 0 12.62-5.75 19.81-5.75 7.2-17.92 7.2m54.03-1.48h-15.21V211.26h15.21v32.51q1.48-5.19 6.27-9.2 4.79-4.01 11.47-4.01 8.38 0 13.13 5.94t4.75 18.03v88.77h-15.21v-87.5q0-6.83-2.49-9.47-2.48-2.63-6.64-2.63-3.04 0-5.64 1.45-2.6 1.44-4.12 4.52-1.52 3.08-1.52 7.98zm72.29 0h-15.29V231.97h15.29zm0-121.57h-15.29v-13.95h15.29zM92.11 491.01H68.07V360.39h24.56q10.25 0 15.96 4.27 5.72 4.26 8.02 12.2 2.3 7.95 2.3 19l.07 57.38q0 13.21-2.63 21.56-2.64 8.35-8.54 12.28-5.9 3.93-15.7 3.93m-8.75-118.45v106.06h7.86q4.16 0 6.91-1.82 2.74-1.82 4.12-6.79 1.37-4.97 1.37-14.4v-60.12q0-12.32-2.9-17.62-2.89-5.31-9.5-5.31zm71.02 118.45h-15.29V379.69h15.29v12.39q1.93-6.46 6.72-10.09 4.79-3.64 12.21-3.64.15 0 .19 1.97.03 1.96.03 4.49v6.45q-3.56 0-7.12.86-3.57.85-6.68 2.89-3.12 2.04-5.35 5.53zm55.15 1.34q-8.02 0-12.88-2.78-4.86-2.79-7.38-7.91-2.53-5.12-3.38-12.28-.85-7.16-.85-15.85V414.2q0-7.87 1.11-14.44 1.11-6.57 3.86-11.35 2.74-4.79 7.64-7.43 4.9-2.63 12.47-2.63 7.65 0 12.32 2.67 4.68 2.67 7.09 7.53 2.41 4.87 3.23 11.58.82 6.72.82 14.73v21.01h-33.25v22.19q0 10.54 1.44 16.07 1.45 5.53 7.91 5.53 4.23 0 6.05-2.64 1.81-2.63 2.22-7.42.41-4.79.41-11.32v-8.98h14.92v4.75q0 8.69-.71 15.74-.7 7.05-3 12.09-2.3 5.05-7.09 7.76t-12.95 2.71m-9.28-80.45v13.65h18.11v-14.17q0-6.68-.44-11.25-.45-4.56-2.16-6.9-1.7-2.34-5.64-2.34-4.38 0-6.49 2.67-2.12 2.68-2.75 7.39-.63 4.71-.63 10.95m68.43 80.08q-10.09 0-14.55-7.83-4.45-7.83-4.52-21.71V451.6q0-7.34 2.52-12.21 2.52-4.86 7.12-8.12 4.61-3.27 10.84-5.9 6.24-2.64 13.66-5.61v-8.61q0-7.12-.45-11.54-.44-4.41-2.26-6.49-1.82-2.08-5.83-2.08-3.93 0-5.9 2.08-1.97 2.08-2.56 6.53-.59 4.45-.59 11.58v3.86h-15.14v-3.19q0-7.13.89-13.25.89-6.13 3.41-10.65 2.52-4.53 7.39-7.09 4.86-2.56 12.8-2.56 7.57 0 12.21 2.41 4.64 2.41 7.12 7.09 2.49 4.67 3.38 11.54.89 6.87.89 15.85v75.77h-15.29v-9.65q-.67 2.23-2.6 4.72-1.93 2.48-5.04 4.19-3.12 1.71-7.5 1.71m4.31-12.32q4 0 6.9-2.56 2.89-2.56 3.86-5.09v-42.38q-5.72 2.53-9.39 4.57-3.68 2.04-5.72 4.27-2.04 2.22-2.85 5.34-.82 3.12-.82 7.87v10.31q0 9.43 1.63 13.55 1.64 4.12 6.39 4.12m61 11.35h-15.21V379.69h15.21v11.57q1.49-5.27 5.98-9.13 4.49-3.86 11.39-3.86 5.49 0 9.57 2.68 4.09 2.67 6.16 8.61 2.75-5.05 7.58-8.17 4.82-3.12 11.28-3.12 8.83 0 13.43 6.28 4.6 6.27 4.6 18.59v87.87h-15.21v-88.32q0-6.31-2.45-8.79-2.45-2.49-6.46-2.49-5.71 0-8.27 2.56-2.57 2.56-2.57 9.17v87.87h-15.28v-88.39q0-5.94-2.31-8.57-2.3-2.64-6.45-2.64-5.42 0-8.2 3.49-2.79 3.49-2.79 9.43zM7.26 562.75q-.81.03-1.45-.18-.65-.2-1.11-.57l.58-1.09q.34.23.81.41.47.18 1.09.17.55-.02.85-.41.3-.4.3-1.06v-1.12q-.23.58-.63.77-.4.2-.9.2-.82 0-1.27-.48-.45-.47-.63-1.3-.17-.83-.17-1.88v-3.36q0-1.07.2-1.92.21-.85.69-1.35.49-.49 1.32-.48.5.01.86.25.36.25.53.75v-.86h1.6v10.63q0 .5-.12 1t-.42.92q-.29.42-.81.68-.52.26-1.32.28m.15-4.15q.32 0 .52-.19t.3-.7q.1-.51.1-1.47v-3.62q0-1.07-.19-1.63-.2-.55-.81-.55-.44 0-.66.28-.21.27-.27.76-.07.48-.07 1.12v3.65q0 1.17.22 1.76.21.59.86.59m11.72 2.52q-.52 0-.97-.26-.44-.26-.71-.83-.28-.57-.28-1.5v-9.29h1.6v9.11q0 .68.25 1.03.24.35.76.35.58 0 .86-.4.27-.41.27-1.02v-9.07h1.61v11.72h-1.61v-1.19q-.17.54-.61.95-.45.4-1.17.4m12.92 0q-1.25 0-1.9-.79-.65-.78-.65-2.6v-.88h1.56v.87q0 .99.21 1.51.22.52.71.52t.72-.32q.23-.32.23-1.15 0-.41-.12-.82-.13-.41-.39-.81-.25-.41-.66-.79l-.83-.79q-.74-.71-1.13-1.51-.39-.8-.39-1.7 0-1.42.67-2.09.67-.67 1.85-.67.79 0 1.33.35.54.34.81 1.14.28.79.28 2.17v.56h-1.53v-.81q0-.98-.19-1.51-.19-.52-.68-.52-.48 0-.72.28-.24.27-.26 1.01-.01.37.1.76.1.38.35.75.24.38.62.74l.85.79q.82.75 1.23 1.63.42.87.42 1.84 0 1.32-.6 2.08-.61.76-1.89.76m12.33-.09h-1.1q-.75 0-1.13-.18-.39-.18-.52-.57-.13-.4-.13-1.06v-8.69h-1.07v-1.19h1.07v-2.13h1.6v2.13h1.26v1.19H43.1v8.55q0 .3.08.44.07.15.35.19.27.05.85.05zm8.35.03q-1.07 0-1.54-.82-.46-.82-.47-2.28v-1.15q0-.77.26-1.28.27-.51.75-.86.49-.34 1.14-.62l1.44-.59v-.9q0-.75-.05-1.22-.04-.46-.23-.68-.2-.22-.62-.22-.41 0-.62.22-.21.22-.27.69-.06.46-.06 1.21v.41h-1.59v-.34q0-.75.09-1.39.09-.64.36-1.12.26-.48.78-.75.51-.27 1.34-.27.8 0 1.29.26.49.25.75.74.26.5.35 1.22.1.72.1 1.67v7.97h-1.61v-1.01q-.07.23-.27.49-.21.27-.54.44-.32.18-.78.18m.45-1.29q.42 0 .73-.27.3-.27.4-.54v-4.46q-.6.27-.99.48-.38.22-.6.45-.21.24-.3.56-.09.33-.09.83v1.09q0 .99.18 1.42.17.44.67.44m13.08 1.26h-1.1q-.75 0-1.14-.18-.38-.18-.51-.57-.13-.4-.13-1.06v-8.69h-1.07v-1.19h1.07v-2.13h1.6v2.13h1.26v1.19h-1.26v8.55q0 .3.08.44.07.15.35.19.27.05.85.05zm8.23-.07h-1.61v-11.72h1.61zm0-12.79h-1.61v-1.47h1.61zm17.97 12.79h-1.61v-11.72h1.61zm0-12.79h-1.61v-1.47h1.61zm9 12.79h-1.6v-13.9h1.6zm18.7 1.79q-.8.03-1.45-.18-.64-.2-1.1-.57l.58-1.09q.34.23.81.41.47.18 1.08.17.55-.02.85-.41.3-.4.3-1.06v-1.12q-.22.58-.62.77-.4.2-.91.2-.82 0-1.27-.48-.45-.47-.62-1.3-.18-.83-.18-1.88v-3.36q0-1.07.21-1.92.2-.85.69-1.35.48-.49 1.31-.48.5.01.86.25.37.25.53.75v-.86h1.6v10.63q0 .5-.12 1t-.41.92q-.29.42-.81.68-.52.26-1.33.28m.16-4.15q.31 0 .51-.19.21-.19.3-.7.1-.51.1-1.47v-3.62q0-1.07-.19-1.63-.19-.55-.8-.55-.45 0-.66.28-.22.27-.28.76-.06.48-.06 1.12v3.65q0 1.17.21 1.76.21.59.87.59m11.48 2.36h-1.61v-11.72h1.61zm0-12.79h-1.61v-1.47h1.61zm9.14 12.89q-1.06 0-1.53-.82t-.48-2.28v-1.15q0-.77.27-1.28.26-.51.75-.86.48-.34 1.14-.62.65-.27 1.44-.59v-.9q0-.75-.05-1.22-.05-.46-.24-.68-.19-.22-.61-.22t-.62.22q-.21.22-.27.69-.07.46-.07 1.21v.41h-1.59v-.34q0-.75.09-1.39.1-.64.36-1.12.27-.48.78-.75t1.35-.27q.8 0 1.28.26.49.25.75.74.27.5.36 1.22.09.72.09 1.67v7.97h-1.61v-1.01q-.07.23-.27.49-.2.27-.53.44-.33.18-.79.18m.45-1.29q.42 0 .73-.27.3-.27.41-.54v-4.46q-.61.27-.99.48-.39.22-.6.45-.22.24-.31.56-.08.33-.08.83v1.09q0 .99.17 1.42.17.44.67.44m11.54 3.33h-1.6v-13.86h1.6v.98q.24-.58.7-.83.45-.25.93-.25.84 0 1.27.5.43.49.58 1.35.14.85.14 1.93v4.24q0 1.11-.17 2-.17.9-.65 1.42-.48.52-1.43.52-.45 0-.82-.27-.36-.28-.55-.65zm1.06-3.34q.58-.01.76-.58.19-.58.19-1.8v-4.75q0-.64-.05-1.14-.06-.49-.25-.77-.2-.27-.62-.27-.34 0-.58.15-.24.16-.37.63-.14.47-.14 1.4v4.81q0 1.16.2 1.74.2.58.86.58m11.37 3.34h-1.6v-13.86h1.6v.98q.23-.58.69-.83.46-.25.93-.25.85 0 1.28.5.43.49.57 1.35.14.85.14 1.93v4.24q0 1.11-.16 2-.17.9-.65 1.42-.48.52-1.44.52-.45 0-.81-.27-.36-.28-.55-.65zm1.05-3.34q.58-.01.77-.58.19-.58.19-1.8v-4.75q0-.64-.06-1.14-.05-.49-.25-.77-.19-.27-.62-.27-.33 0-.57.15-.25.16-.38.63t-.13 1.4v4.81q0 1.16.2 1.74.2.58.85.58m12.21 1.34q-.83 0-1.35-.28-.51-.29-.79-.81-.28-.53-.38-1.27-.1-.74-.1-1.65v-4.15q0-1.1.21-1.97.21-.87.78-1.37.56-.5 1.63-.5.79 0 1.3.29.51.28.79.8t.39 1.22q.1.7.1 1.53v4.15q0 .9-.09 1.63-.09.74-.36 1.27-.27.54-.78.82-.52.29-1.35.29m0-1.33q.42 0 .63-.28.2-.28.27-.79.07-.5.07-1.17v-4.91q0-.66-.07-1.15-.07-.48-.28-.76-.21-.27-.62-.27-.44 0-.66.27-.22.28-.28.76-.07.49-.07 1.15v4.91q0 .67.07 1.17.06.51.28.79.22.28.66.28m11.36 1.19h-1.6v-11.72h1.6v1.25q.16-.55.67-.97.51-.42 1.22-.42.88 0 1.37.62.5.63.5 1.9v9.34h-1.6v-9.33q0-.63-.29-.91-.28-.28-.71-.28-.33 0-.59.14-.27.14-.42.44-.15.29-.15.76zm13.48.14q-.85 0-1.36-.29-.51-.29-.78-.83-.26-.54-.35-1.29-.09-.76-.09-1.67v-4.14q0-.83.12-1.52.11-.69.4-1.2.29-.5.81-.78.51-.28 1.31-.28t1.3.28q.49.29.74.8.26.51.34 1.22.09.7.09 1.55v2.21h-3.5v2.33q0 1.11.15 1.7.15.58.83.58.45 0 .64-.28t.23-.78q.05-.5.05-1.19v-.95h1.57v.5q0 .92-.08 1.66-.07.74-.31 1.27-.25.53-.75.82-.5.28-1.36.28m-.98-8.47v1.44h1.91v-1.49q0-.7-.05-1.18t-.23-.73q-.18-.25-.59-.25-.46 0-.68.29-.23.28-.29.77-.07.5-.07 1.15m11.56 11.02h-.83l.57-2.69h-.97v-1.83h2.02v1.76zm18.5-2.53q-.52 0-.97-.26-.44-.26-.72-.83-.27-.57-.27-1.5v-9.29h1.6v9.11q0 .68.24 1.03.25.35.77.35.58 0 .86-.4.27-.41.27-1.02v-9.07h1.61v11.72h-1.61v-1.19q-.17.54-.61.95-.45.4-1.17.4m12.31-.16h-1.6v-11.72h1.6v1.25q.15-.55.67-.97.51-.42 1.22-.42.88 0 1.37.62.5.63.5 1.9v9.34H247v-9.33q0-.63-.28-.91t-.72-.28q-.32 0-.58.14-.27.14-.42.44-.15.29-.15.76zm23.24.1q-.48 0-.91-.24-.44-.25-.69-.84v.98h-1.6v-13.9h1.6v3.11q.14-.5.58-.78.44-.29.92-.29.87 0 1.32.5.46.49.62 1.34.17.84.17 1.9v4.51q0 1.05-.16 1.89-.16.85-.59 1.34-.43.48-1.26.48m-.53-1.3q.58-.01.76-.59.17-.57.17-1.82v-4.72q0-.66-.05-1.15-.06-.49-.25-.76t-.6-.27q-.35 0-.6.16-.24.16-.37.63t-.13 1.39v4.75q0 1.19.2 1.79.2.59.87.59m12.19 1.34q-.83 0-1.35-.28-.51-.29-.79-.81-.28-.53-.38-1.27-.1-.74-.1-1.65v-4.15q0-1.1.21-1.97.21-.87.78-1.37.56-.5 1.63-.5.79 0 1.3.29.51.28.79.8t.39 1.22q.1.7.1 1.53v4.15q0 .9-.09 1.63-.1.74-.37 1.27-.27.54-.78.82-.51.29-1.34.29m0-1.33q.42 0 .62-.28.21-.28.28-.79.07-.5.07-1.17v-4.91q0-.66-.07-1.15-.07-.48-.28-.76-.21-.27-.62-.27-.44 0-.66.27-.22.28-.29.76-.06.49-.06 1.15v4.91q0 .67.06 1.17.07.51.29.79.22.28.66.28m12.22 1.33q-.85 0-1.37-.29-.52-.28-.79-.83-.27-.54-.36-1.29-.09-.76-.09-1.68v-3.92q0-1.17.19-2.07.2-.9.77-1.41.57-.51 1.69-.51.78 0 1.26.26.49.26.74.74.25.49.34 1.16.09.67.09 1.49v.81h-1.58v-1.03q0-.67-.04-1.13-.04-.45-.22-.69-.18-.23-.6-.23-.45 0-.67.25-.22.26-.29.73-.07.47-.07 1.12v4.98q0 .73.06 1.21t.27.72q.21.24.65.24.42 0 .61-.26.2-.25.25-.73.05-.48.05-1.14v-1.14h1.58v.76q0 .87-.08 1.58-.09.71-.34 1.23-.26.51-.75.79t-1.3.28m11.95 0q-.85 0-1.37-.29-.52-.28-.79-.83-.27-.54-.36-1.29-.1-.76-.1-1.68v-3.92q0-1.17.2-2.07.19-.9.77-1.41.57-.51 1.69-.51.78 0 1.26.26t.74.74q.25.49.34 1.16.09.67.09 1.49v.81h-1.58v-1.03q0-.67-.04-1.13-.04-.45-.22-.69-.18-.23-.61-.23-.44 0-.66.25-.22.26-.29.73-.08.47-.08 1.12v4.98q0 .73.07 1.21.06.48.27.72.21.24.65.24.42 0 .61-.26.19-.25.25-.73.05-.48.05-1.14v-1.14h1.58v.76q0 .87-.09 1.58-.08.71-.34 1.23-.25.51-.74.79t-1.3.28m11.95 0q-.83 0-1.34-.28-.52-.29-.8-.81-.28-.53-.38-1.27-.1-.74-.1-1.65v-4.15q0-1.1.21-1.97.21-.87.78-1.37.57-.5 1.63-.5.8 0 1.3.29.51.28.79.8t.39 1.22q.1.7.1 1.53v4.15q0 .9-.09 1.63-.09.74-.36 1.27-.27.54-.78.82-.52.29-1.35.29m0-1.33q.42 0 .63-.28.2-.28.28-.79.07-.5.07-1.17v-4.91q0-.66-.07-1.15-.08-.48-.29-.76-.21-.27-.62-.27-.44 0-.66.27-.22.28-.28.76-.07.49-.07 1.15v4.91q0 .67.07 1.17.06.51.28.79.22.28.66.28m11.36 1.19h-1.6v-11.72h1.6v1.25q.16-.55.67-.97.51-.42 1.22-.42.88 0 1.38.62.49.63.49 1.9v9.34h-1.6v-9.33q0-.63-.28-.91-.29-.28-.72-.28-.32 0-.59.14-.27.14-.42.44-.15.29-.15.76zm13.48.14q-.84 0-1.36-.29-.51-.29-.77-.83-.27-.54-.36-1.29-.09-.76-.09-1.67v-4.14q0-.83.12-1.52.12-.69.4-1.2.29-.5.81-.78.51-.28 1.31-.28.81 0 1.3.28.49.29.74.8.26.51.34 1.22.09.7.09 1.55v2.21h-3.5v2.33q0 1.11.15 1.7.15.58.83.58.45 0 .64-.28t.24-.78q.04-.5.04-1.19v-.95h1.57v.5q0 .92-.08 1.66-.07.74-.31 1.27t-.75.82q-.5.28-1.36.28m-.98-8.47v1.44h1.91v-1.49q0-.7-.05-1.18t-.22-.73q-.18-.25-.6-.25-.46 0-.68.29-.22.28-.29.77-.07.5-.07 1.15m21.24 8.43q-1.06 0-1.53-.82t-.48-2.28v-1.15q0-.77.27-1.28.26-.51.75-.86.48-.34 1.14-.62l1.44-.59v-.9q0-.75-.05-1.22-.05-.46-.24-.68-.19-.22-.61-.22t-.62.22q-.21.22-.27.69-.06.46-.06 1.21v.41h-1.6v-.34q0-.75.1-1.39.09-.64.35-1.12.27-.48.78-.75t1.35-.27q.8 0 1.28.26.49.25.75.74.27.5.36 1.22.09.72.09 1.67v7.97h-1.61v-1.01q-.07.23-.27.49-.2.27-.53.44-.33.18-.79.18m.45-1.29q.43 0 .73-.27.31-.27.41-.54v-4.46q-.6.27-.99.48-.39.22-.6.45-.22.24-.3.56-.09.33-.09.83v1.09q0 .99.17 1.42.17.44.67.44m11.55 1.19h-1.61v-13.9h1.61zm9.01 0h-1.6v-13.9h1.6zm9.16.1q-1.06 0-1.53-.82t-.48-2.28v-1.15q0-.77.27-1.28.26-.51.75-.86.48-.34 1.14-.62l1.44-.59v-.9q0-.75-.05-1.22-.05-.46-.24-.68-.19-.22-.61-.22t-.62.22q-.21.22-.27.69-.06.46-.06 1.21v.41h-1.6v-.34q0-.75.1-1.39.09-.64.35-1.12.27-.48.78-.75t1.35-.27q.8 0 1.28.26.49.25.75.74.27.5.36 1.22.09.72.09 1.67v7.97h-1.61v-1.01q-.07.23-.27.49-.2.27-.53.44-.33.18-.79.18m.45-1.29q.43 0 .73-.27.31-.27.41-.54v-4.46q-.6.27-.99.48-.39.22-.6.45-.22.24-.3.56-.09.33-.09.83v1.09q0 .99.17 1.42.17.44.67.44m21.7 1.19h-1.88l-1.69-11.72h1.45l.91 6.65.32 2.78h.06l.27-2.79.81-6.64H415zm10.76.14q-.82 0-1.34-.28-.52-.29-.79-.81-.28-.53-.38-1.27-.1-.74-.1-1.65v-4.15q0-1.1.21-1.97.21-.87.77-1.37.57-.5 1.63-.5.8 0 1.31.29.51.28.79.8t.38 1.22q.11.7.11 1.53v4.15q0 .9-.09 1.63-.1.74-.37 1.27-.27.54-.78.82-.51.29-1.35.29m0-1.33q.43 0 .63-.28.21-.28.28-.79.07-.5.07-1.17v-4.91q0-.66-.07-1.15-.07-.48-.28-.76-.21-.27-.63-.27-.43 0-.65.27-.22.28-.29.76-.06.49-.06 1.15v4.91q0 .67.06 1.17.07.51.29.79.22.28.65.28m11.4 1.19h-1.61v-13.9h1.61zm10.55.07h-1.1q-.75 0-1.13-.18-.38-.18-.52-.57-.13-.4-.13-1.06v-8.69h-1.07v-1.19h1.07v-2.13h1.6v2.13h1.27v1.19h-1.27v8.55q0 .3.08.44.08.15.35.19.27.05.85.05zm8.35.03q-1.06 0-1.53-.82t-.48-2.28v-1.15q0-.77.27-1.28.26-.51.75-.86.48-.34 1.14-.62.65-.27 1.43-.59v-.9q0-.75-.04-1.22-.05-.46-.24-.68-.19-.22-.61-.22t-.62.22q-.21.22-.27.69-.07.46-.07 1.21v.41h-1.59v-.34q0-.75.09-1.39.1-.64.36-1.12.27-.48.78-.75t1.35-.27q.79 0 1.28.26.49.25.75.74.26.5.36 1.22.09.72.09 1.67v7.97h-1.61v-1.01q-.07.23-.27.49-.2.27-.53.44-.33.18-.79.18m.45-1.29q.42 0 .73-.27.3-.27.4-.54v-4.46q-.6.27-.98.48-.39.22-.61.45-.21.24-.3.56-.08.33-.08.83v1.09q0 .99.17 1.42.17.44.67.44m11.5 1.19h-1.37v-1.54h1.37zM332.966 91.003l-81.731 13.517 61.05-30.819s.564-13.426-10.362-9.079l-80.74 44.876-82.588 13.675c-.811 4.595 2.59 4.843 2.59 4.843l60.15-7.502-65.669 36.518s-2.59 2.253.744 5.452l89.143-44.988 104.417-13.021c11.422-2.952 3.019-13.495 3.019-13.495m-138.525-5.61.023-.157v-.158zm-30.548-41.586c-17.414 0-30.548 7.615-30.548 17.707 0-10.115 13.134-17.73 30.548-17.73m-12.66 33.995q5.767 1.487 12.66 1.51-6.893-.023-12.66-1.51l-.113-.045zm-3.357 22.754h.067z"></path><path fill="#f5baff" d="M147.2 77.26q1.397.496 2.884.902 6.24 1.757 13.832 1.802a51.814 51.814 0 0 1-16.716-2.703m-13.832 7.952v.18-.338zm17.91-7.457.54-.157a47.309 47.309 0 0 1-9.28-3.515l-.339.135q2.163 1.217 4.709 2.163 2.027.766 4.235 1.352zm12.638-11.804c-5.407 0-9.8-2.253-9.8-5.024 0-2.816 4.393-5.069 9.8-5.069-5.407 0-9.8 2.253-9.8 5.069 0 2.77 4.393 5.024 9.8 5.024m22.168-4.438c0-3.808-8.651-9.327-22.145-9.327 13.517 0 22.145 5.52 22.145 9.327m-22.168 9.349c13.404 0 22.01-5.452 22.145-9.237-.135 3.785-8.74 9.237-22.145 9.237m22.145-9.237.023-.112zm0 0 .023-.112zm-44.29-.112v.112zm31.967-.586c0 2.77-4.393 5.024-9.822 5.024 5.407 0 9.822-2.253 9.822-5.024 0-2.816-4.415-5.069-9.8-5.069 5.407 0 9.8 2.253 9.8 5.069"></path><path fill="#f5baff" d="M154.139 60.928c0 2.77 4.37 5.024 9.777 5.024s9.822-2.253 9.822-5.024c0-2.816-4.393-5.069-9.822-5.069-5.407 0-9.8 2.253-9.8 5.069m25.818 39.582h-.045zm-3.335-22.754.113-.045zq-5.744 1.487-12.66 1.51 6.916-.023 12.683-1.51m17.865-16.242c0-10.115-13.134-17.73-30.548-17.73 17.414 0 30.548 7.615 30.548 17.73m-52.716.112c.158 3.785 8.764 9.237 22.145 9.237-13.404 0-21.987-5.452-22.145-9.237m22.145-9.439c-13.517 0-22.145 5.52-22.145 9.327 0-3.808 8.65-9.327 22.145-9.327m-22.145 9.44v-.113zM289.915 46.96v-.316zM243.35 66.492v-.157.315zm-8.831-11.016-1.464.563.135.135zm-34.04-11.714c-1.261 0-2.298-.631-2.298-1.397s1.037-1.352 2.298-1.352 2.32.586 2.32 1.352c0 .766-1.036 1.397-2.32 1.397m5.88 2.816c-1.262 0-2.298-.609-2.298-1.352 0-.789 1.036-1.42 2.298-1.42s2.32.631 2.32 1.397-1.036 1.352-2.32 1.352m0-5.767c-1.262 0-2.298-.63-2.298-1.397 0-.766 1.036-1.374 2.298-1.374s2.32.608 2.32 1.352c0 .788-1.036 1.419-2.32 1.419m5.902 8.853c-1.284 0-2.32-.63-2.32-1.374 0-.766 1.036-1.374 2.32-1.374 1.262 0 2.298.608 2.298 1.352 0 .766-1.036 1.396-2.298 1.396m0-5.812c-1.284 0-2.32-.608-2.32-1.397 0-.743 1.036-1.351 2.32-1.351 1.262 0 2.298.608 2.298 1.351 0 .789-1.036 1.397-2.298 1.397m0-5.812c-1.284 0-2.32-.63-2.32-1.397 0-.766 1.036-1.352 2.32-1.352 1.262 0 2.298.586 2.298 1.352 0 .766-1.036 1.397-2.298 1.397m5.858 8.538c-1.262 0-2.298-.608-2.298-1.352 0-.788 1.036-1.419 2.298-1.419 1.306 0 2.32.63 2.32 1.397 0 .766-1.014 1.351-2.32 1.351m0-5.767c-1.262 0-2.298-.63-2.298-1.396 0-.766 1.036-1.375 2.298-1.375 1.306 0 2.32.609 2.32 1.352 0 .789-1.014 1.42-2.32 1.42m5.88 2.928c-1.24 0-2.298-.608-2.298-1.352 0-.788 1.058-1.396 2.297-1.396 1.284 0 2.32.608 2.32 1.374 0 .766-1.013 1.396-2.32 1.396"></path><path fill="#f5baff" d="M200.48 40.99c-1.262 0-2.299.609-2.299 1.375s1.037 1.397 2.298 1.397 2.32-.631 2.32-1.397-1.036-1.352-2.32-1.352m5.88-2.974c-1.262 0-2.298.609-2.298 1.352 0 .789 1.036 1.42 2.298 1.42s2.32-.631 2.32-1.397-1.036-1.375-2.32-1.375m5.902-2.77c-1.284 0-2.32.608-2.32 1.351 0 .789 1.036 1.42 2.32 1.42 1.262 0 2.298-.631 2.298-1.397s-1.036-1.352-2.298-1.352m0 11.624c-1.284 0-2.32.609-2.32 1.352 0 .766 1.036 1.397 2.32 1.397 1.262 0 2.298-.63 2.298-1.374 0-.766-1.036-1.375-2.298-1.375m5.858-3.108c-1.262 0-2.298.63-2.298 1.396 0 .766 1.036 1.352 2.298 1.352 1.306 0 2.32-.586 2.32-1.352 0-.766-1.014-1.396-2.32-1.396m5.88-2.816c-1.24 0-2.298.608-2.298 1.374 0 .766 1.058 1.397 2.297 1.397 1.284 0 2.32-.631 2.32-1.397s-1.013-1.352-2.32-1.352m-17.64 2.794c-1.26 0-2.297.63-2.297 1.396 0 .766 1.036 1.352 2.298 1.352s2.32-.586 2.32-1.352c0-.766-1.036-1.396-2.32-1.396m5.902-2.704c-1.284 0-2.32.608-2.32 1.352 0 .788 1.036 1.397 2.32 1.397 1.262 0 2.298-.609 2.298-1.397 0-.744-1.036-1.352-2.298-1.352m5.858-3.064c-1.262 0-2.298.609-2.298 1.352 0 .789 1.036 1.42 2.298 1.42 1.306 0 2.32-.631 2.32-1.397s-1.014-1.375-2.32-1.375m-27.485 4.754v.09zm44.313.09v-.09zm-6.128 6.285.293.18-.09-.518-.225.113zm8.38-26.065v.09zm44.313.09v-.09zm-12.345-.675c0-2.816-4.393-5.07-9.822-5.07-5.407 0-9.8 2.254-9.8 5.047 0 2.771 4.416 5.046 9.8 5.046 5.407 0 9.822-2.252 9.822-5.046m-34.986 32.868-1.239.564.113.112 1.464-.563z"></path><path fill="#f5baff" d="M259.345 40.855q6.916-.045 12.683-1.509c3.402-.879 6.488-2.073 9.056-3.56q2.704-1.554 4.641-3.469a13.066 13.066 0 0 0 4.19-8.988v-.226c0-10.137-13.134-17.752-30.57-17.752s-30.548 7.637-30.548 17.752v.226q.09 2.41 1.081 4.573l-.9-.293.067.135-.226-.225c-4.618-1.577-10.07-2.478-16.04-2.478-17.414 0-30.548 7.614-30.548 17.752v.225q.09 2.41 1.082 4.596a47.309 47.309 0 0 0-19.374-3.83c-17.46 0-30.57 7.615-30.57 17.707v.225a12.39 12.39 0 0 0 2.748 7.344q.653.857 1.441 1.645a22.528 22.528 0 0 0 4.641 3.514s4.956 2.704 9.056 3.537q5.79 1.487 12.661 1.51 6.916-.023 12.66-1.51l.136-.045q2.23-.54 4.235-1.329 2.569-.946 4.709-2.163 2.703-1.577 4.64-3.491.766-.789 1.442-1.645 1.532-2.028 2.23-4.303l.046 1.915a15.77 15.77 0 0 1-2.974 4.258 22.528 22.528 0 0 1-4.618 3.604q-2.569 1.555-5.768 2.704-1.396.495-2.883.9-6.24 1.758-13.832 1.803-7.592-.045-13.855-1.802l-2.884-.901a31.54 31.54 0 0 1-5.767-2.704q-2.703-1.6-4.618-3.604a15.77 15.77 0 0 1-3.447-5.407v19.847q0 1.24.338 2.433c1.262 5.497 6.533 10.048 14.193 12.684h.067q1.487.518 3.11.9l.923.226q1.577.405 3.221.676l.316.045a51.814 51.814 0 0 0 8.335.608h.09a58.573 58.573 0 0 0 8.38-.608l.294-.068q1.667-.248 3.221-.63l.946-.226q1.577-.405 3.087-.9l.067-.023c7.66-2.636 12.931-7.187 14.193-12.684q.293-1.194.338-2.433v-4.528c5.023 2.14 11.309 3.38 18.292 3.38 15.905 0 28.205-6.354 30.256-15.162q.292-1.171.315-2.433v-4.573c4.596 1.577 10.047 2.478 15.995 2.478 15.905 0 28.205-6.353 30.255-15.139q.293-1.216.315-2.455V27.136c-1.216 3.514-4.055 6.6-8.065 9.011q-3.74 2.253-8.65 3.605c-4.123 1.126-8.786 1.802-13.833 1.802a51.814 51.814 0 0 1-16.738-2.726q-.135-.45-.36-.879 2.095.789 4.438 1.397 5.767 1.464 12.638 1.51m-73.284 20.77c-.135 3.785-8.74 9.237-22.122 9.237s-22.01-5.452-22.168-9.237v-.112c0-3.808 8.65-9.327 22.145-9.327s22.168 5.52 22.168 9.327zm4.573-18.743v-.09c0-3.83 8.651-9.35 22.145-9.35 6.691 0 12.166 1.352 16.04 3.2 3.92 1.847 6.128 4.212 6.128 6.15v.09c-.09 1.87-2.208 4.123-5.925 5.947l.09.518-.293-.18v-.225c-3.852 1.802-9.349 3.154-16.04 3.154-13.381 0-21.987-5.407-22.145-9.237m52.716.136v3.807c-1.24 3.514-4.055 6.6-8.065 9.011l-1.577.856q-3.199 1.667-7.096 2.749c-4.123 1.126-8.786 1.802-13.81 1.802-5.046 0-9.71-.676-13.855-1.802a38.298 38.298 0 0 1-5.136-1.803l-.428-.968q3.041 1.419 6.736 2.342 5.767 1.487 12.66 1.51 6.894-.023 12.661-1.51 4.28-1.103 7.75-2.838l-.248-.225 1.239-.609.338.136q2.68-1.577 4.64-3.492a13.066 13.066 0 0 0 4.19-8.966m-6.127-19.825v-.09c0-3.807 8.629-9.35 22.123-9.35s22.167 5.543 22.167 9.35v.09c-.135 3.807-8.763 9.236-22.167 9.236-13.404 0-21.988-5.406-22.123-9.236"></path></svg></svg>